<svg width="21" height="21" viewBox="0 0 21 21" fill="none" xmlns="http://www.w3.org/2000/svg">
<g id="Group 427319012">
<g id="fi_2097743" clip-path="url(#clip0_1_1866)">
<path id="Vector" d="M17.7468 16.3077C17.688 16.2696 17.2455 15.9596 16.8025 15.0219C15.9888 13.3 15.818 10.8743 15.818 9.14258C15.818 9.13504 15.8179 9.12758 15.8176 9.12008C15.8087 6.83145 14.4383 4.85855 12.4772 3.97336V2.61957C12.4772 1.39105 11.4794 0.391602 10.2529 0.391602H10.0686C8.8421 0.391602 7.84429 1.39105 7.84429 2.61957V3.97328C5.87663 4.86133 4.50347 6.8443 4.50347 9.14258C4.50347 10.8743 4.33269 13.2999 3.51906 15.0219C3.07605 15.9596 2.63359 16.2695 2.57476 16.3077C2.32703 16.4224 2.20488 16.6872 2.26187 16.9556C2.31941 17.2267 2.57277 17.4136 2.84945 17.4136H7.14425C7.16824 19.0597 8.51175 20.3916 10.1608 20.3916C11.8098 20.3916 13.1533 19.0597 13.1773 17.4136H17.4721C17.7487 17.4136 18.0021 17.2267 18.0597 16.9556C18.1166 16.6872 17.9945 16.4223 17.7468 16.3077ZM9.01621 2.61957C9.01621 2.03828 9.48832 1.56539 10.0686 1.56539H10.253C10.8333 1.56539 11.3054 2.03828 11.3054 2.61957V3.59289C10.9355 3.51645 10.5527 3.47621 10.1606 3.47621C9.76867 3.47621 9.38593 3.51641 9.01624 3.59277L9.01621 2.61957ZM10.1608 19.2178C9.15792 19.2178 8.33992 18.4125 8.31613 17.4136H12.0054C11.9816 18.4124 11.1636 19.2178 10.1608 19.2178ZM12.5202 16.2397C12.52 16.2397 4.1848 16.2397 4.1848 16.2397C4.28617 16.0818 4.38933 15.9029 4.49187 15.7007C5.27718 14.1522 5.67538 11.9457 5.67538 9.14258C5.67538 6.66535 7.68746 4.65 10.1606 4.65C12.6337 4.65 14.6458 6.66535 14.6458 9.14453C14.6458 9.15176 14.6459 9.15895 14.6462 9.16613C14.6484 11.958 15.0466 14.1566 15.8297 15.7007C15.9322 15.9029 16.0354 16.0818 16.1368 16.2397H12.5202Z" fill="#666D80"/>
</g>
</g>
<defs>
<clipPath id="clip0_1_1866">
<rect width="20" height="20" fill="white" transform="translate(0.160156 0.391602)"/>
</clipPath>
</defs>
</svg>
