<svg width="21" height="21" viewBox="0 0 21 21" fill="none" xmlns="http://www.w3.org/2000/svg">
<g clip-path="url(#clip0_1_1869)">
<path d="M19.3512 12.4462C19.2676 12.3628 19.162 12.3048 19.0468 12.2789C18.9315 12.253 18.8113 12.2603 18.7 12.3C17.2046 12.8332 15.5886 12.9311 14.0398 12.5823C12.4909 12.2336 11.0728 11.4525 9.95025 10.3299C8.82767 9.20721 8.04669 7.78907 7.69803 6.24022C7.34938 4.69136 7.44737 3.07536 7.98063 1.57999C8.02025 1.46869 8.02752 1.34844 8.00159 1.23318C7.97566 1.11792 7.91759 1.01237 7.83412 0.928766C7.75064 0.845162 7.64518 0.786929 7.52996 0.760818C7.41475 0.734707 7.29449 0.741786 7.18313 0.781236C5.83493 1.25732 4.61146 2.03131 3.60375 3.04561C1.79726 4.85346 0.78272 7.30476 0.783203 9.86048C0.783686 12.4162 1.79916 14.8671 3.60633 16.6743C5.4135 18.4815 7.86441 19.4969 10.4201 19.4974C12.9759 19.4979 15.4271 18.4833 17.235 16.6769C18.2494 15.669 19.0234 14.4453 19.4994 13.0969C19.5387 12.9855 19.5456 12.8653 19.5194 12.7501C19.4932 12.635 19.4349 12.5296 19.3512 12.4462ZM16.3512 15.7931C15.499 16.6429 14.4739 17.2994 13.3455 17.718C12.2171 18.1366 11.0118 18.3075 9.81156 18.2191C8.61127 18.1307 7.44407 17.785 6.38919 17.2056C5.33431 16.6261 4.41647 15.8265 3.69797 14.861C2.97948 13.8954 2.47716 12.7866 2.22512 11.6097C1.97309 10.4329 1.97723 9.21557 2.23728 8.04046C2.49733 6.86535 3.00719 5.75996 3.73225 4.79933C4.4573 3.83871 5.38058 3.04534 6.43938 2.47311C6.12593 4.03357 6.20144 5.6472 6.65924 7.17157C7.11704 8.69593 7.94306 10.0842 9.06438 11.2137C10.1938 12.3352 11.582 13.1614 13.1064 13.6192C14.6309 14.077 16.2445 14.1524 17.805 13.8387C17.4186 14.5578 16.9288 15.2162 16.3512 15.7931Z" fill="#666D80"/>
</g>
<defs>
<clipPath id="clip0_1_1869">
<rect x="0.160156" y="0.120605" width="20" height="20" rx="10" fill="white"/>
</clipPath>
</defs>
</svg>
