<svg width="21" height="21" viewBox="0 0 21 21" fill="none" xmlns="http://www.w3.org/2000/svg">
<g clip-path="url(#clip0_1_1852)">
<path d="M18.9464 8.19223C19.1605 7.58437 19.2773 6.93109 19.2773 6.25098C19.2773 3.02012 16.6489 0.391602 13.418 0.391602H6.30859C3.07773 0.391602 0.449219 3.02012 0.449219 6.25098C0.449219 7.75406 1.01844 9.12656 1.95227 10.1649C1.73262 10.7879 1.62109 11.4405 1.62109 12.1104C1.62109 15.3628 4.24961 18.0088 7.48047 18.0088H10.271L13.6777 20.2923C13.776 20.3583 13.8898 20.3916 14.004 20.3916C14.0985 20.3916 14.1933 20.3687 14.2798 20.3226C14.4706 20.2208 14.5898 20.022 14.5898 19.8057V18.0088H15.1545C15.245 18.0088 15.3308 17.9882 15.4074 17.9516C18.2525 17.5499 20.4492 15.0834 20.4492 12.1104C20.4492 10.6457 19.9182 9.26902 18.9464 8.19223ZM1.62109 6.25098C1.62109 3.66629 3.72391 1.56348 6.30859 1.56348H13.418C16.0027 1.56348 18.1055 3.66629 18.1055 6.25098C18.1055 8.83566 16.0027 10.9385 13.418 10.9385H10.4492C10.3345 10.9385 10.2224 10.9721 10.1267 11.0352L7.48047 12.78V11.5244C7.48047 11.2008 7.21812 10.9385 6.89453 10.9385H6.30859C3.72391 10.9385 1.62109 8.83566 1.62109 6.25098ZM14.5899 16.8369H14.0039C13.6803 16.8369 13.418 17.0993 13.418 17.4229V18.7075L10.7755 16.9362C10.679 16.8714 10.5654 16.8369 10.4492 16.8369H7.48047C4.89578 16.8369 2.79297 14.7166 2.79297 12.1104C2.79297 11.7415 2.8352 11.3794 2.91855 11.0271C3.66602 11.5593 4.54293 11.9207 5.49223 12.0537C5.56848 12.09 5.65387 12.1104 5.74395 12.1104H6.30859V13.8682C6.30859 14.0838 6.42695 14.2819 6.61676 14.3841C6.80641 14.4862 7.03699 14.4761 7.21707 14.3574L10.625 12.1104H13.418C15.509 12.1104 17.3474 11.0091 18.3845 9.35637C18.9645 10.1512 19.2773 11.1049 19.2773 12.1104C19.2773 14.7166 17.1746 16.8369 14.5899 16.8369Z" fill="#666D80"/>
<path d="M6.30859 5.0791C5.66242 5.0791 5.13672 5.6048 5.13672 6.25098C5.13672 6.89715 5.66242 7.42285 6.30859 7.42285C6.95477 7.42285 7.48047 6.89715 7.48047 6.25098C7.48047 5.6048 6.95477 5.0791 6.30859 5.0791Z" fill="#666D80"/>
<path d="M9.86328 5.0791C9.21711 5.0791 8.69141 5.6048 8.69141 6.25098C8.69141 6.89715 9.21711 7.42285 9.86328 7.42285C10.5095 7.42285 11.0352 6.89715 11.0352 6.25098C11.0352 5.6048 10.5095 5.0791 9.86328 5.0791Z" fill="#666D80"/>
<path d="M13.418 5.0791C12.7718 5.0791 12.2461 5.6048 12.2461 6.25098C12.2461 6.89715 12.7718 7.42285 13.418 7.42285C14.0641 7.42285 14.5898 6.89715 14.5898 6.25098C14.5898 5.6048 14.0641 5.0791 13.418 5.0791Z" fill="#666D80"/>
</g>
<defs>
<clipPath id="clip0_1_1852">
<rect width="20" height="20" fill="white" transform="translate(0.449219 0.391602)"/>
</clipPath>
</defs>
</svg>
