<svg width="21" height="21" viewBox="0 0 21 21" fill="none" xmlns="http://www.w3.org/2000/svg">
<g id="fi_2669764" clip-path="url(#clip0_1_1840)">
<g id="Group">
<path id="Vector" d="M10.4883 9.00732H11.4648C11.7884 9.00732 12.0508 8.74498 12.0508 8.42139C12.0508 8.09779 11.7884 7.83545 11.4648 7.83545H10.4883C10.1647 7.83545 9.90234 8.09779 9.90234 8.42139C9.90234 8.74498 10.1647 9.00732 10.4883 9.00732Z" fill="#666D80"/>
<path id="Vector_2" d="M7.98828 7.83545H7.01172C6.68812 7.83545 6.42578 8.09779 6.42578 8.42139C6.42578 8.74498 6.68812 9.00732 7.01172 9.00732H7.98828C8.31187 9.00732 8.57422 8.74498 8.57422 8.42139C8.57422 8.09779 8.31187 7.83545 7.98828 7.83545Z" fill="#666D80"/>
<path id="Vector_3" d="M13.9648 9.00732H14.9414C15.265 9.00732 15.5273 8.74498 15.5273 8.42139C15.5273 8.09779 15.265 7.83545 14.9414 7.83545H13.9648C13.6412 7.83545 13.3789 8.09779 13.3789 8.42139C13.3789 8.74498 13.6412 9.00732 13.9648 9.00732Z" fill="#666D80"/>
<path id="Vector_4" d="M4.51172 10.4722H3.53516C3.21156 10.4722 2.94922 10.7345 2.94922 11.0581C2.94922 11.3817 3.21156 11.644 3.53516 11.644H4.51172C4.83531 11.644 5.09766 11.3817 5.09766 11.0581C5.09766 10.7345 4.83531 10.4722 4.51172 10.4722Z" fill="#666D80"/>
<path id="Vector_5" d="M7.98828 10.4722H7.01172C6.68812 10.4722 6.42578 10.7345 6.42578 11.0581C6.42578 11.3817 6.68812 11.644 7.01172 11.644H7.98828C8.31187 11.644 8.57422 11.3817 8.57422 11.0581C8.57422 10.7345 8.31187 10.4722 7.98828 10.4722Z" fill="#666D80"/>
<path id="Vector_6" d="M12.0508 11.0581C12.0508 10.7345 11.7884 10.4722 11.4648 10.4722H10.4883C10.1647 10.4722 9.90234 10.7345 9.90234 11.0581C9.90234 11.3817 10.1647 11.644 10.4883 11.644H11.4648C11.7884 11.644 12.0508 11.3817 12.0508 11.0581Z" fill="#666D80"/>
<path id="Vector_7" d="M4.51172 13.1089H3.53516C3.21156 13.1089 2.94922 13.3712 2.94922 13.6948C2.94922 14.0184 3.21156 14.2808 3.53516 14.2808H4.51172C4.83531 14.2808 5.09766 14.0184 5.09766 13.6948C5.09766 13.3712 4.83531 13.1089 4.51172 13.1089Z" fill="#666D80"/>
<path id="Vector_8" d="M7.98828 13.1089H7.01172C6.68812 13.1089 6.42578 13.3712 6.42578 13.6948C6.42578 14.0184 6.68812 14.2808 7.01172 14.2808H7.98828C8.31187 14.2808 8.57422 14.0184 8.57422 13.6948C8.57422 13.3712 8.31187 13.1089 7.98828 13.1089Z" fill="#666D80"/>
<path id="Vector_9" d="M18.0273 11.022V3.44092C18.0273 2.25627 17.0636 1.29248 15.8789 1.29248H14.7461V0.706543C14.7461 0.382949 14.4838 0.120605 14.1602 0.120605C13.8366 0.120605 13.5742 0.382949 13.5742 0.706543V1.29248H11.4648V0.706543C11.4648 0.382949 11.2025 0.120605 10.8789 0.120605C10.5553 0.120605 10.293 0.382949 10.293 0.706543V1.29248H8.18359V0.706543C8.18359 0.382949 7.92125 0.120605 7.59766 0.120605C7.27406 0.120605 7.01172 0.382949 7.01172 0.706543V1.29248H4.90234V0.706543C4.90234 0.382949 4.64 0.120605 4.31641 0.120605C3.99281 0.120605 3.73047 0.382949 3.73047 0.706543V1.29248H2.59766C1.41301 1.29248 0.449219 2.25627 0.449219 3.44092V15.1597C0.449219 16.1289 1.23777 16.9175 2.20703 16.9175H10.9813C11.6676 18.7849 13.4639 20.1206 15.5664 20.1206C18.2588 20.1206 20.4492 17.9302 20.4492 15.2378C20.4492 13.4423 19.4749 11.8703 18.0273 11.022ZM1.62109 3.44092C1.62109 2.90244 2.05918 2.46436 2.59766 2.46436H3.73047V3.05029C3.73047 3.37389 3.99281 3.63623 4.31641 3.63623C4.64 3.63623 4.90234 3.37389 4.90234 3.05029V2.46436H7.01172V3.05029C7.01172 3.37389 7.27406 3.63623 7.59766 3.63623C7.92125 3.63623 8.18359 3.37389 8.18359 3.05029V2.46436H10.293V3.05029C10.293 3.37389 10.5553 3.63623 10.8789 3.63623C11.2025 3.63623 11.4648 3.37389 11.4648 3.05029V2.46436H13.5742V3.05029C13.5742 3.37389 13.8366 3.63623 14.1602 3.63623C14.4838 3.63623 14.7461 3.37389 14.7461 3.05029V2.46436H15.8789C16.4174 2.46436 16.8555 2.90244 16.8555 3.44092V5.19873H1.62109V3.44092ZM2.20703 15.7456C1.88395 15.7456 1.62109 15.4828 1.62109 15.1597V6.37061H16.8555V10.528C16.4446 10.4154 16.0125 10.355 15.5664 10.355C12.874 10.355 10.6836 12.5454 10.6836 15.2378C10.6836 15.4092 10.6926 15.5787 10.7099 15.7456H2.20703ZM15.5664 18.9487C13.5202 18.9487 11.8555 17.284 11.8555 15.2378C11.8555 13.1916 13.5202 11.5269 15.5664 11.5269C17.6126 11.5269 19.2773 13.1916 19.2773 15.2378C19.2773 17.284 17.6126 18.9487 15.5664 18.9487Z" fill="#666D80"/>
<path id="Vector_10" d="M17.5195 14.6519H16.1523V13.2847C16.1523 12.9611 15.89 12.6987 15.5664 12.6987C15.2428 12.6987 14.9805 12.9611 14.9805 13.2847V15.2378C14.9805 15.5614 15.2428 15.8237 15.5664 15.8237H17.5195C17.8431 15.8237 18.1055 15.5614 18.1055 15.2378C18.1055 14.9142 17.8431 14.6519 17.5195 14.6519Z" fill="#666D80"/>
</g>
</g>
<defs>
<clipPath id="clip0_1_1840">
<rect width="20" height="20" fill="white" transform="translate(0.449219 0.120605)"/>
</clipPath>
</defs>
</svg>
