<svg width="18" height="21" viewBox="0 0 18 21" fill="none" xmlns="http://www.w3.org/2000/svg">
<path d="M15.6992 3.1106H15.1133V2.44653C15.1133 1.47728 14.3247 0.688721 13.3555 0.688721H5.15234C4.99691 0.688721 4.84793 0.750479 4.73805 0.860361L0.831797 4.76661C0.721914 4.87649 0.660156 5.02548 0.660156 5.18091V16.5872C0.660156 17.5564 1.44871 18.345 2.41797 18.345H3.00391V18.9309C3.00391 19.9002 3.79246 20.6887 4.76172 20.6887H15.6992C16.6685 20.6887 17.457 19.9002 17.457 18.9309V4.86841C17.457 3.89915 16.6685 3.1106 15.6992 3.1106ZM4.56641 2.68923V4.59497H2.66066L4.56641 2.68923ZM2.41797 17.1731C2.09488 17.1731 1.83203 16.9102 1.83203 16.5872V5.76685H5.15234C5.47594 5.76685 5.73828 5.5045 5.73828 5.18091V1.8606H13.3555C13.6786 1.8606 13.9414 2.12345 13.9414 2.44653V16.5872C13.9414 16.9102 13.6786 17.1731 13.3555 17.1731H2.41797ZM16.2852 18.9309C16.2852 19.254 16.0223 19.5168 15.6992 19.5168H4.76172C4.43863 19.5168 4.17578 19.254 4.17578 18.9309V18.345H13.3555C14.3247 18.345 15.1133 17.5564 15.1133 16.5872V4.28247H15.6992C16.0223 4.28247 16.2852 4.54532 16.2852 4.86841V18.9309Z" fill="#8B949B"/>
<path d="M11.6567 5.50337C11.865 5.2145 11.9883 4.86036 11.9883 4.47778C11.9883 3.50853 11.1997 2.71997 10.2305 2.71997C9.26121 2.71997 8.47266 3.50853 8.47266 4.47778C8.47266 4.86036 8.5959 5.2145 8.80422 5.50337C8.13305 5.96079 7.69141 6.7311 7.69141 7.60278V8.38403C7.69141 8.70763 7.95375 8.96997 8.27734 8.96997H12.1836C12.5072 8.96997 12.7695 8.70763 12.7695 8.38403V7.60278C12.7695 6.7311 12.3279 5.96079 11.6567 5.50337ZM10.2305 3.89185C10.5536 3.89185 10.8164 4.1547 10.8164 4.47778C10.8164 4.80087 10.5536 5.06372 10.2305 5.06372C9.90738 5.06372 9.64453 4.80087 9.64453 4.47778C9.64453 4.1547 9.90738 3.89185 10.2305 3.89185ZM11.5977 7.7981H8.86328V7.60278C8.86328 6.84892 9.4766 6.2356 10.2305 6.2356C10.9843 6.2356 11.5977 6.84892 11.5977 7.60278V7.7981Z" fill="#8B949B"/>
<path d="M3.58984 8.96997H6.32422C6.64781 8.96997 6.91016 8.70763 6.91016 8.38403C6.91016 8.06044 6.64781 7.7981 6.32422 7.7981H3.58984C3.26625 7.7981 3.00391 8.06044 3.00391 8.38403C3.00391 8.70763 3.26625 8.96997 3.58984 8.96997Z" fill="#8B949B"/>
<path d="M12.1836 10.1418H3.58984C3.26625 10.1418 3.00391 10.4042 3.00391 10.7278C3.00391 11.0514 3.26625 11.3137 3.58984 11.3137H12.1836C12.5072 11.3137 12.7695 11.0514 12.7695 10.7278C12.7695 10.4042 12.5072 10.1418 12.1836 10.1418Z" fill="#8B949B"/>
<path d="M12.1836 12.4856H3.58984C3.26625 12.4856 3.00391 12.7479 3.00391 13.0715C3.00391 13.3951 3.26625 13.6575 3.58984 13.6575H12.1836C12.5072 13.6575 12.7695 13.3951 12.7695 13.0715C12.7695 12.7479 12.5072 12.4856 12.1836 12.4856Z" fill="#8B949B"/>
<path d="M12.1836 14.8293H3.58984C3.26625 14.8293 3.00391 15.0917 3.00391 15.4153C3.00391 15.7389 3.26625 16.0012 3.58984 16.0012H12.1836C12.5072 16.0012 12.7695 15.7389 12.7695 15.4153C12.7695 15.0917 12.5072 14.8293 12.1836 14.8293Z" fill="#8B949B"/>
</svg>
