<svg width="21" height="21" viewBox="0 0 21 21" fill="none" xmlns="http://www.w3.org/2000/svg">
<g clip-path="url(#clip0_1_3580)">
<path d="M19.5223 4.65873H12.6442C12.6348 4.65873 12.6264 4.65369 12.6224 4.6456L11.913 3.2067C11.7128 2.79944 11.2902 2.53638 10.836 2.53638H6.67802C6.01609 2.53638 5.47761 3.07501 5.47761 3.73709V4.91401H4.30024C3.63846 4.91401 3.09998 5.45249 3.09998 6.11442V7.29133H1.92307C1.26114 7.29133 0.722656 7.82981 0.722656 8.49174V18.2055C0.722656 18.8674 1.26114 19.4059 1.92307 19.4059H14.7675C15.4294 19.4059 15.9679 18.8674 15.9679 18.2055V17.0284H17.145C17.8069 17.0284 18.3454 16.49 18.3454 15.8282V14.6513H19.5223C20.1842 14.6513 20.7227 14.1128 20.7227 13.4509V5.85944C20.7227 5.19736 20.1842 4.65873 19.5223 4.65873ZM14.7675 18.2295H1.92307C1.90995 18.2295 1.89911 18.2188 1.89911 18.2055V8.49174C1.89911 8.47847 1.90995 8.46778 1.92307 8.46778H6.0814C6.08537 8.46778 6.08918 8.46916 6.09254 8.47099C6.093 8.47129 6.09361 8.47114 6.09407 8.47145C6.09544 8.47236 6.0962 8.47404 6.09742 8.47511C6.09941 8.47709 6.1017 8.47877 6.10292 8.48121L6.8126 9.92058C7.01631 10.3335 7.42891 10.5901 7.88927 10.5901H14.7675C14.7707 10.5901 14.7739 10.5907 14.7768 10.592C14.7853 10.5956 14.7913 10.6042 14.7913 10.6141C14.7913 14.7627 14.7914 18.1677 14.7914 18.2055C14.7914 18.2188 14.7808 18.2295 14.7675 18.2295ZM17.1689 15.8282C17.1689 15.8413 17.1582 15.852 17.1451 15.852H15.9679V10.6141C15.9679 9.95201 15.4293 9.41353 14.7673 9.41353H7.88927C7.88042 9.41353 7.87187 9.40819 7.8679 9.4001L7.15806 7.96073C6.95451 7.54829 6.54206 7.29133 6.08155 7.29133H4.27644V6.11442C4.27644 6.10114 4.28712 6.09046 4.30024 6.09046H8.45872C8.46788 6.09046 8.47612 6.0955 8.48024 6.10404L9.19008 7.54341C9.39394 7.95631 9.80638 8.21281 10.2666 8.21281H17.1451C17.1582 8.21281 17.1689 8.22349 17.1689 8.23677V15.8282ZM19.5462 13.4509C19.5462 13.4641 19.5356 13.4748 19.5223 13.4748H18.3454V8.23677C18.3454 7.57484 17.807 7.03636 17.1451 7.03636H10.2666C10.2576 7.03636 10.2492 7.03101 10.2451 7.02277L9.53539 5.58387C9.33199 5.17066 8.91939 4.91401 8.45872 4.91401H6.65406V3.73709C6.65406 3.72367 6.66475 3.71283 6.67787 3.71283H10.8359C10.8449 3.71283 10.8533 3.71787 10.8574 3.72626L11.5673 5.16608C11.771 5.57868 12.1836 5.83518 12.6442 5.83518H19.5223C19.5354 5.83518 19.5461 5.84601 19.5461 5.8596V13.4509H19.5462Z" fill="white"/>
<path d="M11.1761 15.6711C10.8513 15.6711 10.5879 15.9345 10.5879 16.2594V16.5995C10.5879 16.9243 10.8513 17.1877 11.1761 17.1877C11.501 17.1877 11.7643 16.9243 11.7643 16.5995V16.2594C11.7643 15.9345 11.501 15.6711 11.1761 15.6711Z" fill="white"/>
<path d="M12.891 15.6711C12.5661 15.6711 12.3027 15.9345 12.3027 16.2594V16.5995C12.3027 16.9243 12.5661 17.1877 12.891 17.1877C13.2158 17.1877 13.4792 16.9243 13.4792 16.5995V16.2594C13.4792 15.9345 13.2158 15.6711 12.891 15.6711Z" fill="white"/>
</g>
<defs>
<clipPath id="clip0_1_3580">
<rect width="20" height="20" fill="white" transform="translate(0.761719 0.934814)"/>
</clipPath>
</defs>
</svg>
