<svg width="21" height="21" viewBox="0 0 21 21" fill="none" xmlns="http://www.w3.org/2000/svg">
<g clip-path="url(#clip0_1_3538)">
<path d="M10.9489 5.90747C8.31274 5.90747 6.16797 8.05225 6.16797 10.6884C6.16797 13.3245 8.31274 15.4692 10.9489 15.4692C13.585 15.4692 15.7297 13.3245 15.7297 10.6884C15.7297 8.05225 13.585 5.90747 10.9489 5.90747ZM10.9489 14.274C8.97177 14.274 7.36319 12.6654 7.36319 10.6884C7.36319 8.71127 8.97177 7.10269 10.9489 7.10269C12.9259 7.10269 14.5345 8.71127 14.5345 10.6884C14.5345 12.6654 12.9259 14.274 10.9489 14.274Z" fill="white"/>
<path d="M20.4786 8.4115L18.9415 8.07733C18.8078 7.66809 18.6422 7.26892 18.4468 6.8844L19.2978 5.5607C19.4497 5.32419 19.4163 5.01367 19.2177 4.815L16.8229 2.42029C16.6243 2.22162 16.3138 2.1882 16.0772 2.34018L14.7535 3.19116C14.369 2.9957 13.9698 2.83014 13.5606 2.69647L13.2264 1.1593C13.1668 0.884644 12.9236 0.688721 12.6425 0.688721H9.25595C8.97488 0.688721 8.73166 0.884644 8.672 1.1593L8.33783 2.69647C7.92859 2.83014 7.52942 2.9957 7.1449 3.19116L5.8212 2.34018C5.58469 2.1882 5.27417 2.22162 5.0755 2.42029L2.68079 4.815C2.48212 5.01367 2.4487 5.32419 2.60068 5.5607L3.45166 6.8844C3.2562 7.26892 3.09064 7.66809 2.95697 8.07733L1.4198 8.4115C1.14514 8.47131 0.949219 8.71439 0.949219 8.99545V12.382C0.949219 12.6631 1.14514 12.9061 1.4198 12.9659L2.95697 13.3001C3.09064 13.7094 3.2562 14.1085 3.45166 14.493L2.60068 15.8167C2.4487 16.0533 2.48212 16.3638 2.68079 16.5624L5.0755 18.9572C5.27417 19.1558 5.58469 19.1892 5.8212 19.0373L7.1449 18.1863C7.52942 18.3817 7.92859 18.5473 8.33783 18.681L8.672 20.2181C8.73166 20.4928 8.97488 20.6887 9.25595 20.6887H12.6425C12.9236 20.6887 13.1668 20.4928 13.2264 20.2181L13.5606 18.681C13.9698 18.5473 14.369 18.3817 14.7535 18.1863L16.0772 19.0373C16.3138 19.1892 16.6243 19.156 16.8229 18.9572L19.2177 16.5624C19.4163 16.3638 19.4497 16.0533 19.2978 15.8167L18.4468 14.493C18.6422 14.1085 18.8078 13.7094 18.9415 13.3001L20.4786 12.9659C20.7533 12.9061 20.9492 12.6631 20.9492 12.382V8.99545C20.9492 8.71439 20.7533 8.47131 20.4786 8.4115ZM19.754 11.9003L18.3445 12.2067C18.128 12.2538 17.9553 12.4168 17.8958 12.6301C17.7409 13.1857 17.5181 13.7229 17.2337 14.2269C17.1248 14.42 17.1315 14.6574 17.2514 14.8438L18.0319 16.0578L16.3185 17.7714L15.1043 16.9909C14.9179 16.871 14.6805 16.8643 14.4876 16.9732C13.9834 17.2576 13.4462 17.4804 12.8906 17.6353C12.6773 17.6948 12.5143 17.8675 12.4672 18.084L12.1608 19.4935H9.73767L9.43127 18.084C9.38412 17.8675 9.22116 17.6948 9.00784 17.6353C8.45227 17.4804 7.91501 17.2576 7.41101 16.9732C7.21799 16.8643 6.98056 16.8711 6.7941 16.9909L5.58011 17.7714L3.8667 16.0578L4.64703 14.8438C4.76697 14.6574 4.77383 14.42 4.66489 14.2269C4.38046 13.7229 4.15768 13.1857 4.00266 12.6301C3.94315 12.4168 3.77057 12.2538 3.55405 12.2067L2.14444 11.9003V9.47717L3.55389 9.17078C3.77042 9.12363 3.94315 8.96066 4.00266 8.74734C4.15753 8.19177 4.38031 7.65451 4.66473 7.15051C4.77368 6.95749 4.76697 6.72006 4.64703 6.5336L3.86655 5.31961L5.57996 3.60605L6.7941 4.38654C6.98056 4.50647 7.21799 4.51318 7.41086 4.40424C7.91501 4.11981 8.45227 3.89703 9.00784 3.74216C9.22116 3.68265 9.38412 3.50992 9.43127 3.2934L9.73767 1.88394H12.1608L12.4672 3.2934C12.5143 3.50992 12.6773 3.68265 12.8906 3.74216C13.4462 3.89703 13.9834 4.11981 14.4874 4.40424C14.6805 4.51318 14.9179 4.50632 15.1043 4.38654L16.3183 3.60605L18.0317 5.31961L17.2514 6.5336C17.1315 6.72006 17.1246 6.95749 17.2336 7.15051C17.5181 7.65451 17.7408 8.19177 17.8958 8.74734C17.9553 8.96066 18.1279 9.12363 18.3444 9.17078L19.754 9.47717V11.9003Z" fill="white"/>
</g>
<defs>
<clipPath id="clip0_1_3538">
<rect width="20" height="20" fill="white" transform="translate(0.949219 0.688721)"/>
</clipPath>
</defs>
</svg>
