<svg width="21" height="21" viewBox="0 0 21 21" fill="none" xmlns="http://www.w3.org/2000/svg">
<path d="M18.3057 16.6394C18.6685 16.2002 18.8867 15.6375 18.8867 15.0247C18.8867 13.6246 17.7477 12.4856 16.3477 12.4856C14.9476 12.4856 13.8086 13.6246 13.8086 15.0247C13.8086 15.6375 14.0268 16.2002 14.3896 16.6394C14.1621 16.7397 13.9498 16.8681 13.7568 17.0201L11.61 14.6781C11.7416 14.4318 11.8164 14.1509 11.8164 13.8528C11.8164 13.0889 11.3265 12.4376 10.6445 12.1958V8.89185H13.1836C13.5072 8.89185 13.7695 8.6295 13.7695 8.30591V7.52466C13.7695 6.32767 13.0476 5.29669 12.0166 4.84255C12.3794 4.40337 12.5977 3.8406 12.5977 3.22778C12.5977 1.82774 11.4586 0.688721 10.0586 0.688721C8.65856 0.688721 7.51953 1.82774 7.51953 3.22778C7.51953 3.8406 7.73777 4.40337 8.10059 4.84255C7.06957 5.29669 6.34766 6.32767 6.34766 7.52466V8.30591C6.34766 8.6295 6.61 8.89185 6.93359 8.89185H9.47266V12.1958C8.79066 12.4376 8.30078 13.0889 8.30078 13.8528C8.30078 14.1509 8.37562 14.4318 8.50719 14.6781L6.36039 17.0201C6.16742 16.868 5.95512 16.7397 5.72758 16.6394C6.09035 16.2002 6.30859 15.6375 6.30859 15.0247C6.30859 13.6246 5.16957 12.4856 3.76953 12.4856C2.36949 12.4856 1.23047 13.6246 1.23047 15.0247C1.23047 15.6375 1.44871 16.2002 1.81152 16.6394C0.780508 17.0936 0.0585938 18.1245 0.0585938 19.3215V20.1028C0.0585938 20.4264 0.320937 20.6887 0.644531 20.6887H6.89453C7.21812 20.6887 7.48047 20.4264 7.48047 20.1028V19.3215C7.48047 18.8148 7.35105 18.3378 7.12367 17.9216L9.3707 15.4703C9.58211 15.5605 9.81457 15.6106 10.0586 15.6106C10.3026 15.6106 10.5351 15.5605 10.7465 15.4703L12.9935 17.9216C12.7661 18.3378 12.6367 18.8148 12.6367 19.3215V20.1028C12.6367 20.4264 12.8991 20.6887 13.2227 20.6887H19.4727C19.7962 20.6887 20.0586 20.4264 20.0586 20.1028V19.3215C20.0586 18.1245 19.3367 17.0936 18.3057 16.6394ZM10.0586 1.8606C10.8125 1.8606 11.4258 2.47392 11.4258 3.22778C11.4258 3.98165 10.8125 4.59497 10.0586 4.59497C9.30473 4.59497 8.69141 3.98165 8.69141 3.22778C8.69141 2.47392 9.30473 1.8606 10.0586 1.8606ZM7.51953 7.52466C7.51953 6.5554 8.30809 5.76685 9.27734 5.76685H10.8398C11.8091 5.76685 12.5977 6.5554 12.5977 7.52466V7.71997H7.51953V7.52466ZM16.3477 13.6575C17.1015 13.6575 17.7148 14.2708 17.7148 15.0247C17.7148 15.7785 17.1015 16.3918 16.3477 16.3918C15.5938 16.3918 14.9805 15.7785 14.9805 15.0247C14.9805 14.2708 15.5938 13.6575 16.3477 13.6575ZM3.76953 13.6575C4.5234 13.6575 5.13672 14.2708 5.13672 15.0247C5.13672 15.7785 4.5234 16.3918 3.76953 16.3918C3.01566 16.3918 2.40234 15.7785 2.40234 15.0247C2.40234 14.2708 3.01566 13.6575 3.76953 13.6575ZM6.30859 19.5168H1.23047V19.3215C1.23047 18.3523 2.01902 17.5637 2.98828 17.5637H4.55078C5.52004 17.5637 6.30859 18.3523 6.30859 19.3215V19.5168ZM9.47266 13.8528C9.47266 13.5297 9.73551 13.2668 10.0586 13.2668C10.3817 13.2668 10.6445 13.5297 10.6445 13.8528C10.6445 14.1759 10.3817 14.4387 10.0586 14.4387C9.73551 14.4387 9.47266 14.1759 9.47266 13.8528ZM18.8867 19.5168H13.8086V19.3215C13.8086 18.3523 14.5971 17.5637 15.5664 17.5637H17.1289C18.0982 17.5637 18.8867 18.3523 18.8867 19.3215V19.5168Z" fill="#8B949B"/>
</svg>
