<svg width="21" height="21" viewBox="0 0 21 21" fill="none" xmlns="http://www.w3.org/2000/svg">
<g clip-path="url(#clip0_1_3610)">
<path d="M10.8008 9.55786H11.7773C12.1009 9.55786 12.3633 9.29552 12.3633 8.97192C12.3633 8.64833 12.1009 8.38599 11.7773 8.38599H10.8008C10.4772 8.38599 10.2148 8.64833 10.2148 8.97192C10.2148 9.29552 10.4772 9.55786 10.8008 9.55786Z" fill="white"/>
<path d="M8.30078 8.38599H7.32422C7.00062 8.38599 6.73828 8.64833 6.73828 8.97192C6.73828 9.29552 7.00062 9.55786 7.32422 9.55786H8.30078C8.62437 9.55786 8.88672 9.29552 8.88672 8.97192C8.88672 8.64833 8.62437 8.38599 8.30078 8.38599Z" fill="white"/>
<path d="M14.2773 9.55786H15.2539C15.5775 9.55786 15.8398 9.29552 15.8398 8.97192C15.8398 8.64833 15.5775 8.38599 15.2539 8.38599H14.2773C13.9537 8.38599 13.6914 8.64833 13.6914 8.97192C13.6914 9.29552 13.9537 9.55786 14.2773 9.55786Z" fill="white"/>
<path d="M4.82422 11.0227H3.84766C3.52406 11.0227 3.26172 11.285 3.26172 11.6086C3.26172 11.9322 3.52406 12.1946 3.84766 12.1946H4.82422C5.14781 12.1946 5.41016 11.9322 5.41016 11.6086C5.41016 11.285 5.14781 11.0227 4.82422 11.0227Z" fill="white"/>
<path d="M8.30078 11.0227H7.32422C7.00062 11.0227 6.73828 11.285 6.73828 11.6086C6.73828 11.9322 7.00062 12.1946 7.32422 12.1946H8.30078C8.62437 12.1946 8.88672 11.9322 8.88672 11.6086C8.88672 11.285 8.62437 11.0227 8.30078 11.0227Z" fill="white"/>
<path d="M12.3633 11.6086C12.3633 11.285 12.1009 11.0227 11.7773 11.0227H10.8008C10.4772 11.0227 10.2148 11.285 10.2148 11.6086C10.2148 11.9322 10.4772 12.1946 10.8008 12.1946H11.7773C12.1009 12.1946 12.3633 11.9322 12.3633 11.6086Z" fill="white"/>
<path d="M4.82422 13.6594H3.84766C3.52406 13.6594 3.26172 13.9218 3.26172 14.2454C3.26172 14.569 3.52406 14.8313 3.84766 14.8313H4.82422C5.14781 14.8313 5.41016 14.569 5.41016 14.2454C5.41016 13.9218 5.14781 13.6594 4.82422 13.6594Z" fill="white"/>
<path d="M8.30078 13.6594H7.32422C7.00062 13.6594 6.73828 13.9218 6.73828 14.2454C6.73828 14.569 7.00062 14.8313 7.32422 14.8313H8.30078C8.62437 14.8313 8.88672 14.569 8.88672 14.2454C8.88672 13.9218 8.62437 13.6594 8.30078 13.6594Z" fill="white"/>
<path d="M18.3398 11.5725V3.99146C18.3398 2.80681 17.3761 1.84302 16.1914 1.84302H15.0586V1.25708C15.0586 0.933486 14.7963 0.671143 14.4727 0.671143C14.1491 0.671143 13.8867 0.933486 13.8867 1.25708V1.84302H11.7773V1.25708C11.7773 0.933486 11.515 0.671143 11.1914 0.671143C10.8678 0.671143 10.6055 0.933486 10.6055 1.25708V1.84302H8.49609V1.25708C8.49609 0.933486 8.23375 0.671143 7.91016 0.671143C7.58656 0.671143 7.32422 0.933486 7.32422 1.25708V1.84302H5.21484V1.25708C5.21484 0.933486 4.9525 0.671143 4.62891 0.671143C4.30531 0.671143 4.04297 0.933486 4.04297 1.25708V1.84302H2.91016C1.72551 1.84302 0.761719 2.80681 0.761719 3.99146V15.7102C0.761719 16.6795 1.55027 17.468 2.51953 17.468H11.2938C11.9801 19.3354 13.7764 20.6711 15.8789 20.6711C18.5713 20.6711 20.7617 18.4807 20.7617 15.7883C20.7617 13.9928 19.7874 12.4208 18.3398 11.5725ZM1.93359 3.99146C1.93359 3.45298 2.37168 3.01489 2.91016 3.01489H4.04297V3.60083C4.04297 3.92442 4.30531 4.18677 4.62891 4.18677C4.9525 4.18677 5.21484 3.92442 5.21484 3.60083V3.01489H7.32422V3.60083C7.32422 3.92442 7.58656 4.18677 7.91016 4.18677C8.23375 4.18677 8.49609 3.92442 8.49609 3.60083V3.01489H10.6055V3.60083C10.6055 3.92442 10.8678 4.18677 11.1914 4.18677C11.515 4.18677 11.7773 3.92442 11.7773 3.60083V3.01489H13.8867V3.60083C13.8867 3.92442 14.1491 4.18677 14.4727 4.18677C14.7963 4.18677 15.0586 3.92442 15.0586 3.60083V3.01489H16.1914C16.7299 3.01489 17.168 3.45298 17.168 3.99146V5.74927H1.93359V3.99146ZM2.51953 16.2961C2.19645 16.2961 1.93359 16.0333 1.93359 15.7102V6.92114H17.168V11.0786C16.7571 10.966 16.325 10.9055 15.8789 10.9055C13.1865 10.9055 10.9961 13.0959 10.9961 15.7883C10.9961 15.9598 11.0051 16.1292 11.0224 16.2961H2.51953ZM15.8789 19.4993C13.8327 19.4993 12.168 17.8345 12.168 15.7883C12.168 13.7421 13.8327 12.0774 15.8789 12.0774C17.9251 12.0774 19.5898 13.7421 19.5898 15.7883C19.5898 17.8345 17.9251 19.4993 15.8789 19.4993Z" fill="white"/>
<path d="M17.832 15.2024H16.4648V13.8352C16.4648 13.5116 16.2025 13.2493 15.8789 13.2493C15.5553 13.2493 15.293 13.5116 15.293 13.8352V15.7883C15.293 16.1119 15.5553 16.3743 15.8789 16.3743H17.832C18.1556 16.3743 18.418 16.1119 18.418 15.7883C18.418 15.4647 18.1556 15.2024 17.832 15.2024Z" fill="white"/>
</g>
<defs>
<clipPath id="clip0_1_3610">
<rect width="20" height="20" fill="white" transform="translate(0.761719 0.671143)"/>
</clipPath>
</defs>
</svg>
