<svg width="21" height="21" viewBox="0 0 21 21" fill="none" xmlns="http://www.w3.org/2000/svg">
<g clip-path="url(#clip0_1_3592)">
<path d="M7.61719 6.24146H4.49219C4.16859 6.24146 3.90625 6.5038 3.90625 6.82739C3.90625 7.15099 4.16859 7.41333 4.49219 7.41333H7.61719C7.94078 7.41333 8.20312 7.15099 8.20312 6.82739C8.20312 6.5038 7.94078 6.24146 7.61719 6.24146Z" fill="white"/>
<path d="M7.61719 9.36646H4.49219C4.16859 9.36646 3.90625 9.6288 3.90625 9.95239C3.90625 10.276 4.16859 10.5383 4.49219 10.5383H7.61719C7.94078 10.5383 8.20312 10.276 8.20312 9.95239C8.20312 9.6288 7.94078 9.36646 7.61719 9.36646Z" fill="white"/>
<path d="M7.61719 12.4915H4.49219C4.16859 12.4915 3.90625 12.7538 3.90625 13.0774C3.90625 13.401 4.16859 13.6633 4.49219 13.6633H7.61719C7.94078 13.6633 8.20312 13.401 8.20312 13.0774C8.20312 12.7538 7.94078 12.4915 7.61719 12.4915Z" fill="white"/>
<path d="M16.0156 11.3168V5.96724C16.0156 5.19497 15.7179 4.46642 15.1771 3.9154L12.7997 1.45685C12.7986 1.45567 12.7974 1.45446 12.7963 1.45329C12.2489 0.89665 11.4872 0.577393 10.7066 0.577393H3.16406C2.1948 0.577393 1.40625 1.36595 1.40625 2.33521V17.5305C1.40625 18.4998 2.1948 19.2883 3.16406 19.2883H12.22C13.055 20.0865 14.1861 20.5774 15.4297 20.5774C18.0144 20.5774 20.1172 18.4921 20.1172 15.929C20.1172 13.5625 18.3248 11.6036 16.0156 11.3168ZM2.57812 17.5305V2.33521C2.57812 2.01212 2.84098 1.74927 3.16406 1.74927H10.7066C11.1744 1.74927 11.6308 1.94032 11.9592 2.27341L14.3362 4.73157C14.3373 4.73274 14.3385 4.73392 14.3396 4.73505C14.6647 5.06579 14.8438 5.50337 14.8438 5.96728V11.3174C12.5562 11.6063 10.7812 13.5643 10.7812 15.929C10.7812 16.7193 10.9798 17.4642 11.3292 18.1165H3.16406C2.84098 18.1165 2.57812 17.8536 2.57812 17.5305ZM15.4297 19.4055C13.5127 19.4055 11.9531 17.8459 11.9531 15.929C11.9531 14.012 13.5127 12.4524 15.4297 12.4524C17.3682 12.4524 18.9453 14.012 18.9453 15.929C18.9453 17.8459 17.3682 19.4055 15.4297 19.4055Z" fill="white"/>
<path d="M16.7815 14.5413C16.5329 14.3342 16.1634 14.3678 15.9563 14.6163L14.9673 15.8031L14.743 15.3544C14.5982 15.065 14.2463 14.9476 13.9568 15.0924C13.6674 15.2371 13.5501 15.5891 13.6948 15.8785L14.3198 17.1285C14.4082 17.3053 14.5799 17.4257 14.7763 17.4485C14.7989 17.451 14.8215 17.4524 14.8439 17.4524C15.0166 17.4524 15.182 17.376 15.294 17.2416L16.8565 15.3666C17.0637 15.1179 17.0301 14.7484 16.7815 14.5413Z" fill="white"/>
<path d="M10.7422 7.41333H11.3672C11.6908 7.41333 11.9531 7.15099 11.9531 6.82739C11.9531 6.5038 11.6908 6.24146 11.3672 6.24146H10.7422C10.4186 6.24146 10.1562 6.5038 10.1562 6.82739C10.1562 7.15099 10.4186 7.41333 10.7422 7.41333Z" fill="white"/>
<path d="M11.9531 9.95239C11.9531 9.6288 11.6908 9.36646 11.3672 9.36646H10.7422C10.4186 9.36646 10.1562 9.6288 10.1562 9.95239C10.1562 10.276 10.4186 10.5383 10.7422 10.5383H11.3672C11.6908 10.5383 11.9531 10.276 11.9531 9.95239Z" fill="white"/>
</g>
<defs>
<clipPath id="clip0_1_3592">
<rect width="20" height="20" fill="white" transform="translate(0.761719 0.577393)"/>
</clipPath>
</defs>
</svg>
