<svg width="21" height="21" viewBox="0 0 21 21" fill="none" xmlns="http://www.w3.org/2000/svg">
<g clip-path="url(#clip0_1_3586)">
<path d="M20.7373 14.5228C20.7368 14.5198 20.7362 14.5168 20.7357 14.5139L19.8805 9.83052C19.7367 8.98192 19.0086 8.36646 18.1474 8.36646H14.8589V7.74146C14.8589 6.10364 13.8977 4.6872 12.5064 4.03028C12.8783 3.61532 13.105 3.06771 13.105 2.46802C13.105 1.17567 12.0536 0.124268 10.7612 0.124268C9.46886 0.124268 8.41746 1.17567 8.41746 2.46802C8.41746 3.06774 8.64414 3.61536 9.01597 4.03028C7.62472 4.6872 6.65965 6.10364 6.65965 7.74146V8.36646H3.37503C2.5139 8.36646 1.78586 8.98181 1.64199 9.83036L0.786637 14.5138C0.78609 14.5168 0.785582 14.5198 0.785074 14.5228C0.61773 15.5267 1.37023 16.4617 2.38332 16.5606C2.12007 17.1066 1.97218 17.7194 1.97218 18.3665V19.5383C1.97218 19.8619 2.23453 20.1243 2.55812 20.1243H9.58937C9.91296 20.1243 10.1714 19.8619 10.1714 19.5383V18.3665C10.1714 17.723 10.0291 17.1095 9.76859 16.5657H11.7539C11.4934 17.1095 11.3472 17.723 11.3472 18.3665V19.5383C11.3472 19.8619 11.6095 20.1243 11.9331 20.1243H18.9644C19.288 20.1243 19.5464 19.8619 19.5464 19.5383V18.3665C19.5464 17.7194 19.4024 17.1066 19.1391 16.5606C20.1521 16.4616 20.9046 15.5266 20.7373 14.5228ZM10.7612 1.29614C11.4074 1.29614 11.9331 1.82185 11.9331 2.46802C11.9331 3.11419 11.4074 3.63989 10.7612 3.63989C10.115 3.63989 9.58933 3.11419 9.58933 2.46802C9.58933 1.82185 10.1151 1.29614 10.7612 1.29614ZM7.82765 7.74146C7.82765 6.12603 9.14582 4.81177 10.7612 4.81177C12.3767 4.81177 13.6909 6.12603 13.6909 7.74146V8.36646H7.82765V7.74146ZM9.0034 18.9524H3.14011V18.3665C3.14011 16.7295 4.45828 15.3977 6.07371 15.3977C7.68914 15.3977 9.0034 16.7295 9.0034 18.3665V18.9524ZM4.90183 13.054C4.90183 12.4078 5.42754 11.8821 6.07371 11.8821C6.71988 11.8821 7.24558 12.4078 7.24558 13.054C7.24558 13.7001 6.71988 14.2258 6.07371 14.2258C5.42754 14.2258 4.90183 13.7001 4.90183 13.054ZM18.3784 18.9524H12.5151V18.3665C12.5151 16.7295 13.8333 15.3977 15.4487 15.3977C17.0641 15.3977 18.3784 16.7295 18.3784 18.3665V18.9524ZM14.2768 13.054C14.2768 12.4078 14.8025 11.8821 15.4487 11.8821C16.0949 11.8821 16.6206 12.4078 16.6206 13.054C16.6206 13.7001 16.0949 14.2258 15.4487 14.2258C14.8025 14.2258 14.2768 13.7001 14.2768 13.054ZM18.9643 15.3977H18.3047C17.9807 15.0799 17.605 14.8156 17.1916 14.6189C17.5649 14.2036 17.7924 13.6549 17.7924 13.054C17.7924 11.7616 16.741 10.7102 15.4487 10.7102C14.1563 10.7102 13.1049 11.7616 13.1049 13.054C13.1049 13.6549 13.3325 14.2036 13.7057 14.6189C13.2924 14.8156 12.9167 15.0799 12.5926 15.3977H8.92964C8.60558 15.0799 8.22988 14.8156 7.81656 14.6189C8.1898 14.2036 8.41734 13.6549 8.41734 13.054C8.41734 11.7616 7.36593 10.7102 6.07359 10.7102C4.78125 10.7102 3.72984 11.7616 3.72984 13.054C3.72984 13.6549 3.95742 14.2036 4.33062 14.6189C3.91746 14.8156 3.54175 15.0799 3.21769 15.3977H2.55804C2.19007 15.3977 1.88468 15.0681 1.94039 14.7192L2.7955 10.0369C2.79605 10.0339 2.79656 10.0309 2.79707 10.0279C2.84437 9.74423 3.08742 9.53833 3.37503 9.53833C3.96738 9.53833 17.8448 9.53833 18.1474 9.53833C18.435 9.53833 18.6781 9.74423 18.7253 10.0279C18.7259 10.0309 18.7264 10.0339 18.7269 10.0368L19.5819 14.719C19.6377 15.0678 19.3325 15.3977 18.9643 15.3977Z" fill="white"/>
</g>
<defs>
<clipPath id="clip0_1_3586">
<rect width="20" height="20" fill="white" transform="translate(0.761719 0.124268)"/>
</clipPath>
</defs>
</svg>
