<svg width="21" height="21" viewBox="0 0 21 21" fill="none" xmlns="http://www.w3.org/2000/svg">
<g clip-path="url(#clip0_1_3565)">
<path d="M19.2589 8.47177C19.473 7.86392 19.5898 7.21063 19.5898 6.53052C19.5898 3.29966 16.9614 0.671143 13.7305 0.671143H6.62109C3.39023 0.671143 0.761719 3.29966 0.761719 6.53052C0.761719 8.0336 1.33094 9.4061 2.26477 10.4444C2.04512 11.0675 1.93359 11.7201 1.93359 12.3899C1.93359 15.6423 4.56211 18.2883 7.79297 18.2883H10.5835L13.9902 20.5719C14.0885 20.6378 14.2023 20.6711 14.3165 20.6711C14.411 20.6711 14.5058 20.6483 14.5923 20.6022C14.7831 20.5003 14.9023 20.3016 14.9023 20.0852V18.2883H15.467C15.5575 18.2883 15.6433 18.2678 15.7199 18.2311C18.565 17.8294 20.7617 15.363 20.7617 12.3899C20.7617 10.9252 20.2307 9.54856 19.2589 8.47177ZM1.93359 6.53052C1.93359 3.94583 4.03641 1.84302 6.62109 1.84302H13.7305C16.3152 1.84302 18.418 3.94583 18.418 6.53052C18.418 9.1152 16.3152 11.218 13.7305 11.218H10.7617C10.647 11.218 10.5349 11.2516 10.4392 11.3148L7.79297 13.0595V11.804C7.79297 11.4804 7.53062 11.218 7.20703 11.218H6.62109C4.03641 11.218 1.93359 9.1152 1.93359 6.53052ZM14.9024 17.1165H14.3164C13.9928 17.1165 13.7305 17.3788 13.7305 17.7024V18.987L11.088 17.2157C10.9915 17.151 10.8779 17.1165 10.7617 17.1165H7.79297C5.20828 17.1165 3.10547 14.9961 3.10547 12.3899C3.10547 12.0211 3.1477 11.6589 3.23105 11.3067C3.97852 11.8388 4.85543 12.2003 5.80473 12.3333C5.88098 12.3696 5.96637 12.3899 6.05645 12.3899H6.62109V14.1477C6.62109 14.3633 6.73945 14.5615 6.92926 14.6636C7.11891 14.7658 7.34949 14.7556 7.52957 14.6369L10.9375 12.3899H13.7305C15.8215 12.3899 17.6599 11.2886 18.697 9.63591C19.277 10.4307 19.5898 11.3844 19.5898 12.3899C19.5898 14.9961 17.4871 17.1165 14.9024 17.1165Z" fill="white"/>
<path d="M6.62109 5.35864C5.97492 5.35864 5.44922 5.88435 5.44922 6.53052C5.44922 7.17669 5.97492 7.70239 6.62109 7.70239C7.26727 7.70239 7.79297 7.17669 7.79297 6.53052C7.79297 5.88435 7.26727 5.35864 6.62109 5.35864Z" fill="white"/>
<path d="M10.1758 5.35864C9.52961 5.35864 9.00391 5.88435 9.00391 6.53052C9.00391 7.17669 9.52961 7.70239 10.1758 7.70239C10.822 7.70239 11.3477 7.17669 11.3477 6.53052C11.3477 5.88435 10.822 5.35864 10.1758 5.35864Z" fill="white"/>
<path d="M13.7305 5.35864C13.0843 5.35864 12.5586 5.88435 12.5586 6.53052C12.5586 7.17669 13.0843 7.70239 13.7305 7.70239C14.3766 7.70239 14.9023 7.17669 14.9023 6.53052C14.9023 5.88435 14.3766 5.35864 13.7305 5.35864Z" fill="white"/>
</g>
<defs>
<clipPath id="clip0_1_3565">
<rect width="20" height="20" fill="white" transform="translate(0.761719 0.671143)"/>
</clipPath>
</defs>
</svg>
