<svg width="21" height="21" viewBox="0 0 21 21" fill="none" xmlns="http://www.w3.org/2000/svg">
<path d="M20.1758 7.60864H18.7695V6.63208C18.7695 5.37692 17.976 4.30399 16.8644 3.88767C17.0808 3.55239 17.207 3.15372 17.207 2.72583C17.207 1.54118 16.2432 0.577393 15.0586 0.577393C13.8739 0.577393 12.9102 1.54118 12.9102 2.72583C12.9102 3.15372 13.0364 3.55239 13.2528 3.88767C12.1412 4.30399 11.3477 5.37692 11.3477 6.63208V7.60864H10.1758V6.63208C10.1758 5.37692 9.38223 4.30399 8.27063 3.88767C8.48707 3.55239 8.61328 3.15372 8.61328 2.72583C8.61328 1.54118 7.64949 0.577393 6.46484 0.577393C5.2802 0.577393 4.31641 1.54118 4.31641 2.72583C4.31641 3.15372 4.44262 3.55239 4.65906 3.88767C3.54746 4.30399 2.75391 5.37692 2.75391 6.63208V7.60864H1.34766C1.02406 7.60864 0.761719 7.87099 0.761719 8.19458V10.5383C0.761719 10.8619 1.02406 11.1243 1.34766 11.1243H1.97266V19.9915C1.97266 20.315 2.235 20.5774 2.55859 20.5774H18.9648C19.2884 20.5774 19.5508 20.315 19.5508 19.9915V11.1243H20.1758C20.4994 11.1243 20.7617 10.8619 20.7617 10.5383V8.19458C20.7617 7.87099 20.4994 7.60864 20.1758 7.60864ZM15.0586 1.74927C15.5971 1.74927 16.0352 2.18735 16.0352 2.72583C16.0352 3.26431 15.5971 3.70239 15.0586 3.70239C14.5201 3.70239 14.082 3.26431 14.082 2.72583C14.082 2.18735 14.5201 1.74927 15.0586 1.74927ZM12.5195 6.63208C12.5195 5.66282 13.3081 4.87427 14.2773 4.87427H15.8398C16.8091 4.87427 17.5977 5.66282 17.5977 6.63208V7.60864H12.5195V6.63208ZM6.46484 1.74927C7.00332 1.74927 7.44141 2.18735 7.44141 2.72583C7.44141 3.26431 7.00332 3.70239 6.46484 3.70239C5.92637 3.70239 5.48828 3.26431 5.48828 2.72583C5.48828 2.18735 5.92637 1.74927 6.46484 1.74927ZM3.92578 6.63208C3.92578 5.66282 4.71434 4.87427 5.68359 4.87427H7.24609C8.21535 4.87427 9.00391 5.66282 9.00391 6.63208V7.60864H3.92578V6.63208ZM18.3789 19.4055H3.14453V11.1243H18.3789V19.4055ZM19.5898 9.95239H1.93359V8.78052H19.5898V9.95239Z" fill="white"/>
<path d="M4.90234 18.2336H9.58984C9.91344 18.2336 10.1758 17.9713 10.1758 17.6477V12.8821C10.1758 12.5585 9.91344 12.2961 9.58984 12.2961H4.90234C4.57875 12.2961 4.31641 12.5585 4.31641 12.8821V17.6477C4.31641 17.9713 4.57875 18.2336 4.90234 18.2336ZM5.48828 13.468H9.00391V17.0618H5.48828V13.468Z" fill="white"/>
<path d="M11.9336 18.2336H16.6211C16.9447 18.2336 17.207 17.9713 17.207 17.6477V12.8821C17.207 12.5585 16.9447 12.2961 16.6211 12.2961H11.9336C11.61 12.2961 11.3477 12.5585 11.3477 12.8821V17.6477C11.3477 17.9713 11.61 18.2336 11.9336 18.2336ZM12.5195 13.468H16.0352V17.0618H12.5195V13.468Z" fill="white"/>
</svg>
