<svg width="21" height="21" viewBox="0 0 21 21" fill="none" xmlns="http://www.w3.org/2000/svg">
<g clip-path="url(#clip0_1_3561)">
<path opacity="0.5" d="M20.2617 8.89949C20.2611 8.89903 20.2607 8.89842 20.2602 8.89797L12.1018 0.739839C11.754 0.391938 11.2917 0.200439 10.7999 0.200439C10.3081 0.200439 9.84577 0.391938 9.49787 0.739839L1.34371 8.89385C1.34096 8.89659 1.33806 8.89949 1.33547 8.90224C0.621358 9.62047 0.622579 10.7858 1.33898 11.5022C1.66628 11.8296 2.09841 12.0192 2.5606 12.0391C2.57952 12.041 2.59844 12.0419 2.61752 12.0419H2.94253V18.0456C2.94253 19.2338 3.90933 20.2005 5.09753 20.2005H8.28937C8.61301 20.2005 8.87531 19.938 8.87531 19.6145V14.9075C8.87531 14.3654 9.31644 13.9244 9.85859 13.9244H11.7412C12.2834 13.9244 12.7243 14.3654 12.7243 14.9075V19.6145C12.7243 19.938 12.9866 20.2005 13.3103 20.2005H16.5021C17.6905 20.2005 18.6571 19.2338 18.6571 18.0456V12.0419H18.9586C19.4503 12.0419 19.9126 11.8504 20.2607 11.5023C20.9778 10.7849 20.9781 9.61742 20.2617 8.89949ZM19.432 10.6738C19.3055 10.8003 19.1373 10.87 18.9586 10.87H18.0712C17.7476 10.87 17.4853 11.1323 17.4853 11.456V18.0456C17.4853 18.5876 17.0443 19.0286 16.5021 19.0286H13.8962V14.9075C13.8962 13.7193 12.9296 12.7525 11.7412 12.7525H9.85859C8.67023 12.7525 7.70343 13.7193 7.70343 14.9075V19.0286H5.09753C4.55554 19.0286 4.11441 18.5876 4.11441 18.0456V11.456C4.11441 11.1323 3.85211 10.87 3.52847 10.87H2.65627C2.64712 10.8694 2.63812 10.8689 2.62881 10.8688C2.45425 10.8657 2.29052 10.7965 2.16784 10.6736C1.90691 10.4127 1.90691 9.98806 2.16784 9.72698C2.16799 9.72698 2.16799 9.72683 2.16814 9.72667L2.1686 9.72622L10.3267 1.56839C10.4531 1.4419 10.6211 1.37232 10.7999 1.37232C10.9786 1.37232 11.1466 1.4419 11.2731 1.56839L19.4294 9.72454C19.4306 9.72576 19.432 9.72698 19.4332 9.7282C19.6927 9.98958 19.6923 10.4133 19.432 10.6738Z" fill="white"/>
</g>
<defs>
<clipPath id="clip0_1_3561">
<rect width="20" height="20" fill="white" transform="translate(0.761719 0.239502)"/>
</clipPath>
</defs>
</svg>
