<svg width="72" height="26" viewBox="0 0 72 26" fill="none" xmlns="http://www.w3.org/2000/svg">
<g clip-path="url(#clip0_1_3559)">
<path opacity="0.5" d="M31.2617 8.89949C31.2611 8.89903 31.2607 8.89842 31.2602 8.89797L23.1018 0.739839C22.754 0.391938 22.2917 0.200439 21.7999 0.200439C21.3081 0.200439 20.8458 0.391938 20.4979 0.739839L12.3437 8.89385C12.341 8.89659 12.3381 8.89949 12.3355 8.90224C11.6214 9.62047 11.6226 10.7858 12.339 11.5022C12.6663 11.8296 13.0984 12.0192 13.5606 12.0391C13.5795 12.041 13.5984 12.0419 13.6175 12.0419H13.9425V18.0456C13.9425 19.2338 14.9093 20.2005 16.0975 20.2005H19.2894C19.613 20.2005 19.8753 19.938 19.8753 19.6145V14.9075C19.8753 14.3654 20.3164 13.9244 20.8586 13.9244H22.7412C23.2834 13.9244 23.7243 14.3654 23.7243 14.9075V19.6145C23.7243 19.938 23.9866 20.2005 24.3103 20.2005H27.5021C28.6905 20.2005 29.6571 19.2338 29.6571 18.0456V12.0419H29.9586C30.4503 12.0419 30.9126 11.8504 31.2607 11.5023C31.9778 10.7849 31.9781 9.61742 31.2617 8.89949ZM30.432 10.6738C30.3055 10.8003 30.1373 10.87 29.9586 10.87H29.0712C28.7476 10.87 28.4853 11.1323 28.4853 11.456V18.0456C28.4853 18.5876 28.0443 19.0286 27.5021 19.0286H24.8962V14.9075C24.8962 13.7193 23.9296 12.7525 22.7412 12.7525H20.8586C19.6702 12.7525 18.7034 13.7193 18.7034 14.9075V19.0286H16.0975C15.5555 19.0286 15.1144 18.5876 15.1144 18.0456V11.456C15.1144 11.1323 14.8521 10.87 14.5285 10.87H13.6563C13.6471 10.8694 13.6381 10.8689 13.6288 10.8688C13.4542 10.8657 13.2905 10.7965 13.1678 10.6736C12.9069 10.4127 12.9069 9.98806 13.1678 9.72698C13.168 9.72698 13.168 9.72683 13.1681 9.72667L13.1686 9.72622L21.3267 1.56839C21.4531 1.4419 21.6211 1.37232 21.7999 1.37232C21.9786 1.37232 22.1466 1.4419 22.2731 1.56839L30.4294 9.72454C30.4306 9.72576 30.432 9.72698 30.4332 9.7282C30.6927 9.98958 30.6923 10.4133 30.432 10.6738Z" fill="white"/>
</g>
<defs>
<clipPath id="clip0_1_3559">
<rect width="20" height="20" fill="white" transform="translate(11.7617 0.239502)"/>
</clipPath>
</defs>
</svg>
