<svg width="15" height="15" viewBox="0 0 15 15" fill="none" xmlns="http://www.w3.org/2000/svg">
<g clip-path="url(#clip0_1_3131)">
<path d="M12.9905 10.5531C12.1554 9.71797 11.6863 8.58533 11.6863 7.40432V6.29967C11.6863 4.54249 10.4776 3.06779 8.84639 2.66101V1.53839C8.84642 1.03572 8.43888 0.628174 7.93617 0.628174C7.43346 0.628174 7.02595 1.03572 7.02595 1.53839V2.66105C5.3947 3.06782 4.18607 4.54249 4.18607 6.2997V7.40435C4.18607 8.58536 3.7169 9.718 2.88181 10.5531C2.51475 10.9202 2.40494 11.4722 2.60359 11.9518C2.80225 12.4314 3.27024 12.7441 3.78935 12.7441H6.0521C6.0521 13.7846 6.89564 14.6282 7.93617 14.6282C8.9767 14.6282 9.82023 13.7846 9.82023 12.7441H12.083C12.6021 12.7441 13.0701 12.4314 13.2687 11.9518C13.4674 11.4722 13.3576 10.9201 12.9905 10.5531Z" fill="#755ED2"/>
</g>
<defs>
<clipPath id="clip0_1_3131">
<rect width="14" height="14" fill="white" transform="translate(0.935547 0.628174)"/>
</clipPath>
</defs>
</svg>
