<svg width="15" height="15" viewBox="0 0 15 15" fill="none" xmlns="http://www.w3.org/2000/svg">
<g clip-path="url(#clip0_1_3303)">
<path d="M12.8772 10.3791C12.0422 9.54402 11.573 8.41138 11.573 7.23037V6.12572C11.573 4.36854 10.3644 2.89384 8.73311 2.48706V1.36444C8.73314 0.861766 8.32559 0.454224 7.82289 0.454224C7.32018 0.454224 6.91267 0.861766 6.91267 1.36444V2.48709C5.28142 2.89387 4.07279 4.36854 4.07279 6.12575V7.2304C4.07279 8.41141 3.60362 9.54405 2.76853 10.3791C2.40147 10.7462 2.29166 11.2982 2.49031 11.7779C2.68897 12.2574 3.15696 12.5702 3.67607 12.5702H5.93882C5.93882 13.6107 6.78236 14.4542 7.82289 14.4542C8.86342 14.4542 9.70695 13.6107 9.70695 12.5702H11.9697C12.4888 12.5702 12.9568 12.2574 13.1555 11.7779C13.3541 11.2982 13.2443 10.7462 12.8772 10.3791Z" fill="#755ED2"/>
</g>
<defs>
<clipPath id="clip0_1_3303">
<rect width="14" height="14" fill="white" transform="translate(0.822266 0.454224)"/>
</clipPath>
</defs>
</svg>
