<svg width="24" height="25" viewBox="0 0 24 25" fill="none" xmlns="http://www.w3.org/2000/svg">
<g clip-path="url(#clip0_1_3687)">
<path d="M18.0938 11.2959C18.6115 11.2959 19.0312 10.8762 19.0312 10.3584C19.0312 9.84063 18.6115 9.4209 18.0938 9.4209C17.576 9.4209 17.1562 9.84063 17.1562 10.3584C17.1562 10.8762 17.576 11.2959 18.0938 11.2959Z" fill="#666D80"/>
<path d="M20.25 2.38965H19.0312V1.45215C19.0312 0.934367 18.6115 0.514648 18.0938 0.514648C17.576 0.514648 17.1562 0.934367 17.1562 1.45215V2.38965H12.8906V1.45215C12.8906 0.934367 12.4709 0.514648 11.9531 0.514648C11.4353 0.514648 11.0156 0.934367 11.0156 1.45215V2.38965H6.79688V1.45215C6.79688 0.934367 6.37716 0.514648 5.85938 0.514648C5.34159 0.514648 4.92188 0.934367 4.92188 1.45215V2.38965H3.75C1.68225 2.38965 0 4.0719 0 6.13965V20.7646C0 22.8324 1.68225 24.5146 3.75 24.5146H10.9219C11.4397 24.5146 11.8594 24.0949 11.8594 23.5771C11.8594 23.0594 11.4397 22.6396 10.9219 22.6396H3.75C2.71613 22.6396 1.875 21.7985 1.875 20.7646V6.13965C1.875 5.10577 2.71613 4.26465 3.75 4.26465H4.92188V5.20215C4.92188 5.71993 5.34159 6.13965 5.85938 6.13965C6.37716 6.13965 6.79688 5.71993 6.79688 5.20215V4.26465H11.0156V5.20215C11.0156 5.71993 11.4353 6.13965 11.9531 6.13965C12.4709 6.13965 12.8906 5.71993 12.8906 5.20215V4.26465H17.1562V5.20215C17.1562 5.71993 17.576 6.13965 18.0938 6.13965C18.6115 6.13965 19.0312 5.71993 19.0312 5.20215V4.26465H20.25C21.2839 4.26465 22.125 5.10577 22.125 6.13965V11.4834C22.125 12.0012 22.5447 12.4209 23.0625 12.4209C23.5803 12.4209 24 12.0012 24 11.4834V6.13965C24 4.0719 22.3177 2.38965 20.25 2.38965Z" fill="#666D80"/>
<path d="M18.3281 13.1709C15.2006 13.1709 12.6562 15.7153 12.6562 18.8428C12.6562 21.9703 15.2006 24.5146 18.3281 24.5146C21.4556 24.5146 24 21.9703 24 18.8428C24 15.7153 21.4556 13.1709 18.3281 13.1709ZM18.3281 22.6396C16.2345 22.6396 14.5312 20.9364 14.5312 18.8428C14.5312 16.7491 16.2345 15.0459 18.3281 15.0459C20.4217 15.0459 22.125 16.7491 22.125 18.8428C22.125 20.9364 20.4217 22.6396 18.3281 22.6396Z" fill="#666D80"/>
<path d="M19.6875 17.9053H19.2656V16.9209C19.2656 16.4031 18.8459 15.9834 18.3281 15.9834C17.8103 15.9834 17.3906 16.4031 17.3906 16.9209V18.8428C17.3906 19.3606 17.8103 19.7803 18.3281 19.7803H19.6875C20.2053 19.7803 20.625 19.3606 20.625 18.8428C20.625 18.325 20.2053 17.9053 19.6875 17.9053Z" fill="#666D80"/>
<path d="M14.0156 11.2959C14.5334 11.2959 14.9531 10.8762 14.9531 10.3584C14.9531 9.84063 14.5334 9.4209 14.0156 9.4209C13.4979 9.4209 13.0781 9.84063 13.0781 10.3584C13.0781 10.8762 13.4979 11.2959 14.0156 11.2959Z" fill="#666D80"/>
<path d="M9.9375 15.374C10.4553 15.374 10.875 14.9543 10.875 14.4365C10.875 13.9188 10.4553 13.499 9.9375 13.499C9.41973 13.499 9 13.9188 9 14.4365C9 14.9543 9.41973 15.374 9.9375 15.374Z" fill="#666D80"/>
<path d="M5.85938 11.2959C6.37714 11.2959 6.79688 10.8762 6.79688 10.3584C6.79688 9.84063 6.37714 9.4209 5.85938 9.4209C5.34161 9.4209 4.92188 9.84063 4.92188 10.3584C4.92188 10.8762 5.34161 11.2959 5.85938 11.2959Z" fill="#666D80"/>
<path d="M5.85938 15.374C6.37714 15.374 6.79688 14.9543 6.79688 14.4365C6.79688 13.9188 6.37714 13.499 5.85938 13.499C5.34161 13.499 4.92188 13.9188 4.92188 14.4365C4.92188 14.9543 5.34161 15.374 5.85938 15.374Z" fill="#666D80"/>
<path d="M5.85938 19.4521C6.37714 19.4521 6.79688 19.0324 6.79688 18.5146C6.79688 17.9969 6.37714 17.5771 5.85938 17.5771C5.34161 17.5771 4.92188 17.9969 4.92188 18.5146C4.92188 19.0324 5.34161 19.4521 5.85938 19.4521Z" fill="#666D80"/>
<path d="M9.9375 19.4521C10.4553 19.4521 10.875 19.0324 10.875 18.5146C10.875 17.9969 10.4553 17.5771 9.9375 17.5771C9.41973 17.5771 9 17.9969 9 18.5146C9 19.0324 9.41973 19.4521 9.9375 19.4521Z" fill="#666D80"/>
<path d="M9.9375 11.2959C10.4553 11.2959 10.875 10.8762 10.875 10.3584C10.875 9.84063 10.4553 9.4209 9.9375 9.4209C9.41973 9.4209 9 9.84063 9 10.3584C9 10.8762 9.41973 11.2959 9.9375 11.2959Z" fill="#666D80"/>
</g>
<defs>
<clipPath id="clip0_1_3687">
<rect width="24" height="24" fill="white" transform="translate(0 0.514648)"/>
</clipPath>
</defs>
</svg>
