<svg width="33" height="33" viewBox="0 0 33 33" fill="none" xmlns="http://www.w3.org/2000/svg">
<path d="M25.5254 9.19362C26.046 8.67293 26.046 7.8287 25.5254 7.30801C25.0047 6.7873 24.1604 6.7873 23.6398 7.30801L16.4492 14.4986L9.25869 7.30801C8.73799 6.7873 7.89377 6.7873 7.37307 7.30801C6.85237 7.8287 6.85237 8.67293 7.37307 9.19362L14.5636 16.3842L7.37307 23.5747C6.85237 24.0954 6.85237 24.9396 7.37307 25.4603C7.89377 25.981 8.73799 25.981 9.25869 25.4603L16.4492 18.2698L23.6398 25.4603C24.1604 25.981 25.0047 25.981 25.5254 25.4603C26.046 24.9396 26.046 24.0954 25.5254 23.5747L18.3348 16.3842L25.5254 9.19362Z" fill="#717171"/>
</svg>
