<svg width="21" height="21" viewBox="0 0 21 21" fill="none" xmlns="http://www.w3.org/2000/svg">
<path d="M10.0806 5.0197L10.0806 5.0197C10.2026 4.89777 10.3679 4.82927 10.5404 4.82927C10.7128 4.82927 10.8782 4.89777 11.0001 5.0197C11.122 5.14163 11.1905 5.307 11.1905 5.47943C11.1905 5.65186 11.122 5.81723 11.0001 5.93916L11.0001 5.93917L5.34277 11.5958L5.34015 11.5985L5.34012 11.5984C5.08073 11.8453 4.87337 12.1415 4.73025 12.4698C4.58714 12.798 4.51116 13.1515 4.5068 13.5096C4.50244 13.8676 4.56978 14.2229 4.70486 14.5545C4.83994 14.8861 5.04002 15.1874 5.29332 15.4404C5.54662 15.6935 5.84801 15.8934 6.17973 16.0282C6.51146 16.163 6.86681 16.23 7.22485 16.2254C7.58288 16.2207 7.93637 16.1444 8.26448 16.001C8.59258 15.8576 8.88867 15.65 9.1353 15.3904L9.13794 15.3877L9.13798 15.3877L16.4438 8.08191C16.7507 7.76452 16.9207 7.33927 16.9172 6.89773C16.9136 6.45581 16.7365 6.03299 16.424 5.72049C16.1115 5.40799 15.6887 5.23086 15.2467 5.22731C14.8052 5.22376 14.38 5.39377 14.0626 5.70068L8.17148 11.5958L8.17144 11.5958C8.04327 11.724 7.97127 11.8978 7.97127 12.0791C7.97127 12.2604 8.04327 12.4342 8.17144 12.5624C8.29961 12.6905 8.47345 12.7625 8.65471 12.7625C8.83597 12.7625 9.00981 12.6905 9.13798 12.5624L12.9071 8.79258C12.9668 8.73095 13.0382 8.68176 13.117 8.64784C13.1963 8.61374 13.2816 8.59577 13.3679 8.59498C13.4542 8.59419 13.5398 8.6106 13.6197 8.64324C13.6996 8.67589 13.7722 8.72412 13.8333 8.78512C13.8943 8.84612 13.9426 8.91867 13.9753 8.99854C14.008 9.0784 14.0245 9.16399 14.0238 9.25029C14.0231 9.3366 14.0052 9.4219 13.9712 9.50122C13.9374 9.58012 13.8882 9.65153 13.8266 9.71132L10.0568 13.4818C9.68485 13.8538 9.18036 14.0629 8.6543 14.063C8.12823 14.063 7.62369 13.8541 7.25166 13.4822C6.87963 13.1102 6.67058 12.6058 6.67052 12.0797C6.67045 11.5536 6.87936 11.0491 7.2513 10.677L7.25135 10.677L13.1446 4.78771C13.1447 4.78769 13.1447 4.78768 13.1447 4.78766C13.7041 4.22815 14.4629 3.91379 15.2541 3.91372C16.0454 3.91365 16.8042 4.22791 17.3638 4.78736C17.9233 5.3468 18.2377 6.10561 18.2378 6.89685C18.2378 7.68809 17.9236 8.44695 17.3641 9.00649L17.3641 9.00652L10.0577 16.3102L10.0806 5.0197ZM10.0806 5.0197L4.42403 10.677C4.42401 10.677 4.42399 10.677 4.42397 10.677C3.86658 11.2339 3.48691 11.9437 3.33298 12.7164C3.17906 13.4892 3.25781 14.2902 3.55929 15.0182C3.86077 15.7462 4.37142 16.3684 5.02662 16.8061C5.6817 17.2437 6.45184 17.4772 7.23963 17.4771M10.0806 5.0197L7.23963 17.4771M7.23963 17.4771C7.76317 17.4785 8.2818 17.3762 8.76552 17.1759C9.24911 16.9756 9.68821 16.6815 10.0574 16.3105L7.23963 17.4771Z" fill="#666D80" stroke="#666D80" stroke-width="0.3"/>
</svg>
