<svg width="21" height="21" viewBox="0 0 21 21" fill="none" xmlns="http://www.w3.org/2000/svg">
<path d="M8.74587 6.3632C8.74587 5.80987 9.19254 5.3632 9.74587 5.3632C10.2992 5.3632 10.7459 5.80987 10.7459 6.3632C10.7459 6.91653 10.2992 7.3632 9.74587 7.3632C9.19254 7.3632 8.74587 6.91653 8.74587 6.3632ZM18.7459 6.02987V10.0299C18.7459 11.8699 17.2525 13.3632 15.4125 13.3632H9.41254C7.57254 13.3632 6.07921 11.8699 6.07921 10.0299V6.02987C6.07921 4.18987 7.57254 2.69653 9.41254 2.69653H15.4125C17.2525 2.69653 18.7459 4.18987 18.7459 6.02987ZM7.41254 10.0299C7.41254 10.5432 7.60587 11.0099 7.92587 11.3699L11.4192 7.87653C12.0725 7.2232 13.2125 7.2232 13.8659 7.87653L14.5592 8.56987C14.7125 8.7232 14.9725 8.7232 15.1259 8.56987L17.4125 6.2832V6.02987C17.4125 4.92987 16.5125 4.02987 15.4125 4.02987H9.41254C8.31254 4.02987 7.41254 4.92987 7.41254 6.02987V10.0299ZM17.4125 10.0299V8.16987L16.0659 9.51653C15.4125 10.1699 14.2725 10.1699 13.6192 9.51653L12.9259 8.8232C12.7725 8.66987 12.5192 8.66987 12.3592 8.8232L9.16587 12.0165C9.24587 12.0299 9.32587 12.0299 9.41254 12.0299H15.4125C16.5125 12.0299 17.4125 11.1299 17.4125 10.0299ZM14.8059 14.7232C14.4525 14.6232 14.0859 14.8365 13.9859 15.1899L13.7925 15.8965C13.6525 16.4099 13.3192 16.8432 12.8525 17.1032C12.3859 17.3699 11.8459 17.4365 11.3325 17.2965L5.54587 15.7099C4.47921 15.4165 3.85254 14.3165 4.14587 13.2499L4.78587 10.8765C4.87921 10.5232 4.67254 10.1565 4.31921 10.0565C3.96587 9.9632 3.59921 10.1699 3.49921 10.5232L2.86587 12.8899C2.37921 14.6632 3.42587 16.5032 5.19921 16.9899L10.9859 18.5765C11.2792 18.6565 11.5792 18.6965 11.8725 18.6965C12.4459 18.6965 13.0059 18.5499 13.5192 18.2565C14.2925 17.8165 14.8459 17.1032 15.0859 16.2432L15.2792 15.5365C15.3792 15.1832 15.1659 14.8165 14.8125 14.7165L14.8059 14.7232Z" fill="#666D80"/>
</svg>
