<svg width="17" height="17" viewBox="0 0 17 17" fill="none" xmlns="http://www.w3.org/2000/svg">
<g clip-path="url(#clip0_1_3438)">
<path d="M2.01066 7.73695L14.9095 1.44479C15.0205 1.39068 15.1423 1.36255 15.2657 1.36255C15.7144 1.36255 16.0781 1.72628 16.0781 2.17496V2.19841C16.0781 2.30742 16.0648 2.41603 16.0383 2.52179L14.801 7.47102C14.7672 7.60622 14.6529 7.70608 14.5144 7.72148L9.07606 8.32575C8.88746 8.34668 8.74479 8.50608 8.74479 8.69588C8.74479 8.88568 8.88746 9.04508 9.07606 9.06602L14.5144 9.67028C14.6529 9.68568 14.7672 9.78555 14.801 9.92075L16.0383 14.8699C16.0648 14.9757 16.0781 15.0843 16.0781 15.1933V15.2168C16.0781 15.6655 15.7144 16.0292 15.2657 16.0292C15.1423 16.0292 15.0205 16.0011 14.9095 15.9469L2.01066 9.65482C1.64406 9.47602 1.41146 9.10382 1.41146 8.69588C1.41146 8.28795 1.64406 7.91575 2.01066 7.73695Z" fill="white"/>
</g>
<defs>
<clipPath id="clip0_1_3438">
<rect width="16" height="16" fill="white" transform="matrix(-1 0 0 1 16.7461 0.696533)"/>
</clipPath>
</defs>
</svg>
