<svg width="21" height="21" viewBox="0 0 21 21" fill="none" xmlns="http://www.w3.org/2000/svg">
<path d="M6.17876 16.611C7.43455 17.5894 8.99882 18.1523 10.5835 18.1961C10.5931 18.1964 10.6027 18.1965 10.6123 18.1965C11.1639 18.1965 11.6187 17.7572 11.6339 17.2022C11.6495 16.6377 11.2045 16.1673 10.64 16.1518C8.23625 16.0853 6.12927 14.411 5.51627 12.08C4.77803 9.27306 6.3678 6.38422 9.1355 5.50317C10.5396 5.05624 12.0303 5.18781 13.3327 5.87375C14.6305 6.55717 15.5799 7.70512 16.0075 9.1072C16.274 10.1186 16.1834 11.0642 15.7058 12.2652C15.588 12.5612 15.2251 13.2496 14.4 13.2496C14.3088 13.2496 14.2275 13.1816 14.1872 13.1411C14.0708 13.0241 14.0018 12.85 14.0027 12.6756L14.0308 6.99456C14.0336 6.42983 13.578 5.96974 13.0133 5.96694C13.0116 5.96694 13.0099 5.96694 13.0081 5.96694C12.5092 5.96694 12.0937 6.32505 12.0042 6.79905C11.5429 6.55642 11.0295 6.42765 10.4893 6.42765C9.50697 6.42765 8.54493 6.86913 7.84978 7.63879C7.14489 8.41928 6.75672 9.48119 6.75672 10.6288C6.75672 11.7713 7.12157 12.8446 7.784 13.6513C8.4711 14.4878 9.43205 14.9676 10.4204 14.9676C11.177 14.9676 11.872 14.6979 12.4451 14.2318C12.5322 14.357 12.6295 14.4752 12.7375 14.5838C13.1938 15.0424 13.7842 15.2949 14.4 15.2949C16.0972 15.2949 17.169 14.1203 17.6062 13.0211C18.2529 11.3949 18.3681 10.0202 17.9793 8.56408C17.9765 8.55344 17.9735 8.54281 17.9703 8.53231C17.3855 6.59439 16.0769 5.00763 14.2857 4.06427C12.4947 3.12098 10.4453 2.93998 8.51514 3.55448C6.68561 4.13687 5.16375 5.39205 4.22987 7.08884C3.29564 8.78618 3.05002 10.7435 3.53833 12.6003C3.9612 14.2077 4.87423 15.5946 6.17876 16.611ZM10.4205 12.9225C9.63881 12.9225 8.80194 12.0008 8.80194 10.6288C8.80194 9.27927 9.65988 8.4728 10.4893 8.4728C11.3338 8.4728 11.9316 9.29686 11.9684 10.4914L11.9671 10.7485C11.9185 11.9594 11.2436 12.9225 10.4205 12.9225Z" fill="#666D80"/>
</svg>
