<svg width="13" height="12" viewBox="0 0 13 12" fill="none" xmlns="http://www.w3.org/2000/svg">
<g clip-path="url(#clip0_1_4407)">
<path d="M9.8042 3.4917C9.67159 3.4917 9.54441 3.54438 9.45065 3.63815C9.35688 3.73191 9.3042 3.85909 9.3042 3.9917V9.5872C9.28986 9.84004 9.17619 10.077 8.98795 10.2464C8.79971 10.4158 8.55215 10.504 8.2992 10.4917H4.3092C4.05625 10.504 3.80869 10.4158 3.62045 10.2464C3.43221 10.077 3.31854 9.84004 3.3042 9.5872V3.9917C3.3042 3.85909 3.25152 3.73191 3.15775 3.63815C3.06398 3.54438 2.93681 3.4917 2.8042 3.4917C2.67159 3.4917 2.54441 3.54438 2.45065 3.63815C2.35688 3.73191 2.3042 3.85909 2.3042 3.9917V9.5872C2.31847 10.1053 2.53749 10.5967 2.91329 10.9536C3.28909 11.3106 3.79104 11.5041 4.3092 11.4917H8.2992C8.81736 11.5041 9.31931 11.3106 9.69511 10.9536C10.0709 10.5967 10.2899 10.1053 10.3042 9.5872V3.9917C10.3042 3.85909 10.2515 3.73191 10.1578 3.63815C10.064 3.54438 9.93681 3.4917 9.8042 3.4917Z" fill="#60737F"/>
<path d="M10.3042 1.9917H8.3042V0.991699C8.3042 0.859091 8.25152 0.731914 8.15775 0.638146C8.06398 0.544378 7.93681 0.491699 7.8042 0.491699H4.8042C4.67159 0.491699 4.54441 0.544378 4.45065 0.638146C4.35688 0.731914 4.3042 0.859091 4.3042 0.991699V1.9917H2.3042C2.17159 1.9917 2.04441 2.04438 1.95065 2.13815C1.85688 2.23191 1.8042 2.35909 1.8042 2.4917C1.8042 2.62431 1.85688 2.75148 1.95065 2.84525C2.04441 2.93902 2.17159 2.9917 2.3042 2.9917H10.3042C10.4368 2.9917 10.564 2.93902 10.6578 2.84525C10.7515 2.75148 10.8042 2.62431 10.8042 2.4917C10.8042 2.35909 10.7515 2.23191 10.6578 2.13815C10.564 2.04438 10.4368 1.9917 10.3042 1.9917ZM5.3042 1.9917V1.4917H7.3042V1.9917H5.3042Z" fill="#60737F"/>
<path d="M5.8042 8.4917V4.9917C5.8042 4.85909 5.75152 4.73191 5.65775 4.63815C5.56398 4.54438 5.43681 4.4917 5.3042 4.4917C5.17159 4.4917 5.04441 4.54438 4.95065 4.63815C4.85688 4.73191 4.8042 4.85909 4.8042 4.9917V8.4917C4.8042 8.62431 4.85688 8.75148 4.95065 8.84525C5.04441 8.93902 5.17159 8.9917 5.3042 8.9917C5.43681 8.9917 5.56398 8.93902 5.65775 8.84525C5.75152 8.75148 5.8042 8.62431 5.8042 8.4917Z" fill="#60737F"/>
<path d="M7.8042 8.4917V4.9917C7.8042 4.85909 7.75152 4.73191 7.65775 4.63815C7.56398 4.54438 7.43681 4.4917 7.3042 4.4917C7.17159 4.4917 7.04441 4.54438 6.95065 4.63815C6.85688 4.73191 6.8042 4.85909 6.8042 4.9917V8.4917C6.8042 8.62431 6.85688 8.75148 6.95065 8.84525C7.04441 8.93902 7.17159 8.9917 7.3042 8.9917C7.43681 8.9917 7.56398 8.93902 7.65775 8.84525C7.75152 8.75148 7.8042 8.62431 7.8042 8.4917Z" fill="#60737F"/>
</g>
<defs>
<clipPath id="clip0_1_4407">
<rect width="12" height="12" fill="white" transform="translate(0.304199 -0.00830078)"/>
</clipPath>
</defs>
</svg>
