<svg width="67" height="23" viewBox="0 0 67 23" fill="none" xmlns="http://www.w3.org/2000/svg">
<g clip-path="url(#clip0_1_4101)">
<path d="M63.9541 9.75C63.8215 9.75 63.6943 9.80268 63.6005 9.89645C63.5068 9.99021 63.4541 10.1174 63.4541 10.25V15.8455C63.4398 16.0983 63.3261 16.3353 63.1378 16.5047C62.9496 16.6741 62.7021 16.7623 62.4491 16.75H58.4591C58.2061 16.7623 57.9586 16.6741 57.7704 16.5047C57.5821 16.3353 57.4684 16.0983 57.4541 15.8455V10.25C57.4541 10.1174 57.4014 9.99021 57.3077 9.89645C57.2139 9.80268 57.0867 9.75 56.9541 9.75C56.8215 9.75 56.6943 9.80268 56.6005 9.89645C56.5068 9.99021 56.4541 10.1174 56.4541 10.25V15.8455C56.4684 16.3636 56.6874 16.855 57.0632 17.2119C57.439 17.5689 57.9409 17.7624 58.4591 17.75H62.4491C62.9673 17.7624 63.4692 17.5689 63.845 17.2119C64.2208 16.855 64.4398 16.3636 64.4541 15.8455V10.25C64.4541 10.1174 64.4014 9.99021 64.3077 9.89645C64.2139 9.80268 64.0867 9.75 63.9541 9.75Z" fill="#60737F"/>
<path d="M64.4541 8.25H62.4541V7.25C62.4541 7.11739 62.4014 6.99021 62.3077 6.89645C62.2139 6.80268 62.0867 6.75 61.9541 6.75H58.9541C58.8215 6.75 58.6943 6.80268 58.6005 6.89645C58.5068 6.99021 58.4541 7.11739 58.4541 7.25V8.25H56.4541C56.3215 8.25 56.1943 8.30268 56.1005 8.39645C56.0068 8.49021 55.9541 8.61739 55.9541 8.75C55.9541 8.88261 56.0068 9.00979 56.1005 9.10355C56.1943 9.19732 56.3215 9.25 56.4541 9.25H64.4541C64.5867 9.25 64.7139 9.19732 64.8077 9.10355C64.9014 9.00979 64.9541 8.88261 64.9541 8.75C64.9541 8.61739 64.9014 8.49021 64.8077 8.39645C64.7139 8.30268 64.5867 8.25 64.4541 8.25ZM59.4541 8.25V7.75H61.4541V8.25H59.4541Z" fill="#60737F"/>
<path d="M59.9541 14.75V11.25C59.9541 11.1174 59.9014 10.9902 59.8077 10.8964C59.7139 10.8027 59.5867 10.75 59.4541 10.75C59.3215 10.75 59.1943 10.8027 59.1005 10.8964C59.0068 10.9902 58.9541 11.1174 58.9541 11.25V14.75C58.9541 14.8826 59.0068 15.0098 59.1005 15.1036C59.1943 15.1973 59.3215 15.25 59.4541 15.25C59.5867 15.25 59.7139 15.1973 59.8077 15.1036C59.9014 15.0098 59.9541 14.8826 59.9541 14.75Z" fill="#60737F"/>
<path d="M61.9541 14.75V11.25C61.9541 11.1174 61.9014 10.9902 61.8077 10.8964C61.7139 10.8027 61.5867 10.75 61.4541 10.75C61.3215 10.75 61.1943 10.8027 61.1005 10.8964C61.0068 10.9902 60.9541 11.1174 60.9541 11.25V14.75C60.9541 14.8826 61.0068 15.0098 61.1005 15.1036C61.1943 15.1973 61.3215 15.25 61.4541 15.25C61.5867 15.25 61.7139 15.1973 61.8077 15.1036C61.9014 15.0098 61.9541 14.8826 61.9541 14.75Z" fill="#60737F"/>
</g>
<path d="M35.1345 14.6271C35.0065 14.4751 34.9025 14.3191 34.8225 14.1591C34.7425 14.0151 34.6705 13.8511 34.6065 13.6671C34.5505 13.4831 34.5225 13.2871 34.5225 13.0791C34.5225 12.7671 34.5825 12.4591 34.7025 12.1551C34.8305 11.8511 35.0065 11.5831 35.2305 11.3511C35.4545 11.1191 35.7265 10.9311 36.0465 10.7871C36.3665 10.6431 36.7185 10.5711 37.1025 10.5711C37.4225 10.5711 37.7105 10.6271 37.9665 10.7391C38.2305 10.8431 38.4505 10.9951 38.6265 11.1951C38.8105 11.3871 38.9505 11.6191 39.0465 11.8911C39.1425 12.1631 39.1905 12.4671 39.1905 12.8031V15.5991H30.3345C30.1185 15.5991 29.9145 15.5671 29.7225 15.5031C29.5305 15.4391 29.3625 15.3391 29.2185 15.2031C29.0745 15.0671 28.9585 14.8951 28.8705 14.6871C28.7905 14.4711 28.7505 14.2151 28.7505 13.9191V11.9751H29.7225V13.6671C29.7225 13.8671 29.7385 14.0311 29.7705 14.1591C29.8105 14.2791 29.8625 14.3751 29.9265 14.4471C29.9905 14.5191 30.0625 14.5671 30.1425 14.5911C30.2305 14.6151 30.3225 14.6271 30.4185 14.6271H35.1345ZM38.2305 14.6271V12.7431C38.2305 12.5991 38.2065 12.4551 38.1585 12.3111C38.1105 12.1591 38.0345 12.0231 37.9305 11.9031C37.8265 11.7831 37.6905 11.6871 37.5225 11.6151C37.3625 11.5351 37.1705 11.4951 36.9465 11.4951C36.7545 11.4951 36.5665 11.5311 36.3825 11.6031C36.2065 11.6751 36.0505 11.7831 35.9145 11.9271C35.7785 12.0631 35.6705 12.2271 35.5905 12.4191C35.5105 12.6111 35.4705 12.8271 35.4705 13.0671C35.4705 13.4351 35.5425 13.7231 35.6865 13.9311C35.8305 14.1391 35.9905 14.2951 36.1665 14.3991C36.3585 14.5111 36.5945 14.5871 36.8745 14.6271H38.2305ZM36.3225 8.74712C36.3225 8.59512 36.3745 8.46712 36.4785 8.36312C36.5905 8.25112 36.7225 8.19512 36.8745 8.19512C37.0265 8.19512 37.1545 8.25112 37.2585 8.36312C37.3705 8.46712 37.4265 8.59512 37.4265 8.74712C37.4265 8.89912 37.3705 9.03112 37.2585 9.14312C37.1545 9.24712 37.0265 9.29912 36.8745 9.29912C36.7225 9.29912 36.5905 9.24712 36.4785 9.14312C36.3745 9.03112 36.3225 8.89912 36.3225 8.74712ZM46.5397 14.6271C46.7237 14.6271 46.8157 14.6991 46.8157 14.8431V15.3111C46.8157 15.5031 46.7237 15.5991 46.5397 15.5991H46.2397C46.0797 15.5991 45.9237 15.5871 45.7717 15.5631C45.6197 15.5311 45.4797 15.4791 45.3517 15.4071C45.2237 15.3351 45.1117 15.2351 45.0157 15.1071C44.9197 14.9711 44.8477 14.7991 44.7997 14.5911C44.7517 14.7671 44.6757 14.9191 44.5717 15.0471C44.4677 15.1751 44.3477 15.2791 44.2117 15.3591C44.0757 15.4391 43.9277 15.4991 43.7677 15.5391C43.6077 15.5791 43.4517 15.5991 43.2997 15.5991H40.5517V14.6271H43.1917C43.4797 14.6271 43.6757 14.5551 43.7797 14.4111C43.8917 14.2671 43.9477 14.0431 43.9477 13.7391C43.9477 13.3551 43.9317 13.0191 43.8997 12.7311C43.8757 12.4431 43.8037 12.2071 43.6837 12.0231C43.5637 11.8391 43.3877 11.7031 43.1557 11.6151C42.9237 11.5191 42.6037 11.4711 42.1957 11.4711H41.2357V10.5471H42.4837C42.9397 10.5471 43.3197 10.6111 43.6237 10.7391C43.9277 10.8671 44.1717 11.0431 44.3557 11.2671C44.5397 11.4911 44.6717 11.7551 44.7517 12.0591C44.8317 12.3631 44.8717 12.6951 44.8717 13.0551C44.8717 13.5831 44.9797 13.9791 45.1957 14.2431C45.4197 14.4991 45.7757 14.6271 46.2637 14.6271H46.5397ZM41.5957 8.74712C41.5957 8.59512 41.6477 8.46712 41.7517 8.36312C41.8637 8.25112 41.9957 8.19512 42.1477 8.19512C42.2997 8.19512 42.4277 8.25112 42.5317 8.36312C42.6437 8.46712 42.6997 8.59512 42.6997 8.74712C42.6997 8.89912 42.6437 9.03112 42.5317 9.14312C42.4277 9.24712 42.2997 9.29912 42.1477 9.29912C41.9957 9.29912 41.8637 9.24712 41.7517 9.14312C41.6477 9.03112 41.5957 8.89912 41.5957 8.74712ZM50.6095 14.6271C50.3775 14.3711 50.2015 14.0911 50.0815 13.7871C49.9615 13.4831 49.8815 13.1951 49.8415 12.9231C49.7215 11.9951 49.2855 11.5311 48.5335 11.5311C48.3735 11.5311 48.1815 11.5551 47.9575 11.6031C47.7335 11.6431 47.5095 11.7111 47.2855 11.8071C47.2455 11.6311 47.2015 11.4751 47.1535 11.3391C47.1135 11.2031 47.0735 11.0551 47.0335 10.8951C47.2495 10.8311 47.5175 10.7591 47.8375 10.6791C48.1655 10.5911 48.4895 10.5471 48.8095 10.5471C49.1295 10.5471 49.4095 10.5991 49.6495 10.7031C49.8895 10.8071 50.0895 10.9551 50.2495 11.1471C50.4095 11.3311 50.5335 11.5551 50.6215 11.8191C50.7175 12.0751 50.7815 12.3591 50.8135 12.6711C50.8375 12.8471 50.8615 13.0231 50.8855 13.1991C50.9175 13.3751 50.9615 13.5471 51.0175 13.7151C51.0815 13.8831 51.1655 14.0431 51.2695 14.1951C51.3735 14.3391 51.5135 14.4671 51.6895 14.5791V15.5991H46.3735C46.1895 15.5991 46.0975 15.5271 46.0975 15.3831V14.9151C46.0975 14.7231 46.1895 14.6271 46.3735 14.6271H50.6095Z" fill="#60737F"/>
<defs>
<clipPath id="clip0_1_4101">
<rect width="12" height="12" fill="white" transform="translate(54.4541 6.25)"/>
</clipPath>
</defs>
</svg>
