<svg width="11" height="11" viewBox="0 0 11 11" fill="none" xmlns="http://www.w3.org/2000/svg">
<g clip-path="url(#clip0_1_4109)">
<path d="M9.09698 5.73659C8.89973 5.73659 8.73984 5.89648 8.73984 6.09373V9.6651C8.73984 9.86235 8.57994 10.0222 8.38269 10.0222H1.95423C1.75698 10.0222 1.59708 9.86235 1.59708 9.6651V2.52234C1.59708 2.32509 1.75698 2.1652 1.95423 2.1652H6.23988C6.43713 2.1652 6.59703 2.0053 6.59703 1.80805C6.59703 1.6108 6.43713 1.45093 6.23988 1.45093H1.95423C1.3625 1.45093 0.882812 1.93062 0.882812 2.52234V9.6651C0.882812 10.2568 1.3625 10.7365 1.95423 10.7365H8.38271C8.97444 10.7365 9.45413 10.2568 9.45413 9.6651V6.09371C9.45413 5.89648 9.29423 5.73659 9.09698 5.73659Z" fill="#60737F"/>
<path d="M10.483 1.13731C10.2266 0.880835 9.87878 0.73678 9.51611 0.736822C9.15323 0.735776 8.80506 0.880082 8.54935 1.13754L3.84511 5.84138C3.80608 5.8807 3.77664 5.92849 3.75904 5.98102L3.04477 8.12385C2.98243 8.31099 3.08361 8.51322 3.27075 8.57554C3.30706 8.58763 3.34508 8.59381 3.38333 8.59385C3.42167 8.59378 3.45977 8.58763 3.49619 8.57564L5.63901 7.86137C5.69164 7.84379 5.73946 7.8142 5.77865 7.77495L10.4829 3.07073C11.0168 2.53686 11.0169 1.67123 10.483 1.13731Z" fill="#60737F"/>
</g>
<defs>
<clipPath id="clip0_1_4109">
<rect width="10" height="10" fill="white" transform="translate(0.882812 0.736816)"/>
</clipPath>
</defs>
</svg>
