<svg width="21" height="21" viewBox="0 0 21 21" fill="none" xmlns="http://www.w3.org/2000/svg">
<path fill-rule="evenodd" clip-rule="evenodd" d="M15.0208 10.3915C16.8618 10.3915 18.3542 8.8991 18.3542 7.05819C18.3542 5.21724 16.8618 3.72485 15.0208 3.72485C13.4677 3.72485 12.1626 4.78716 11.7925 6.22485H2.52083C2.0606 6.22485 1.6875 6.59795 1.6875 7.05819C1.6875 7.51843 2.0606 7.89152 2.52083 7.89152H11.7925C12.1626 9.32919 13.4677 10.3915 15.0208 10.3915ZM13.3542 7.05819C13.3542 7.97866 14.1003 8.72485 15.0208 8.72485C15.9413 8.72485 16.6875 7.97866 16.6875 7.05819C16.6875 6.13771 15.9413 5.39152 15.0208 5.39152C14.1003 5.39152 13.3542 6.13771 13.3542 7.05819ZM1.6875 13.7249C1.6875 11.8839 3.17988 10.3915 5.02083 10.3915C6.57403 10.3915 7.87912 11.4539 8.24915 12.8915H17.5208C17.9811 12.8915 18.3542 13.2646 18.3542 13.7249C18.3542 14.1851 17.9811 14.5582 17.5208 14.5582H8.24915C7.87912 15.9959 6.57403 17.0582 5.02083 17.0582C3.17988 17.0582 1.6875 15.5658 1.6875 13.7249ZM6.6875 13.7249C6.6875 12.8044 5.94131 12.0582 5.02083 12.0582C4.10036 12.0582 3.35417 12.8044 3.35417 13.7249C3.35417 14.6454 4.10036 15.3915 5.02083 15.3915C5.94131 15.3915 6.6875 14.6454 6.6875 13.7249Z" fill="#007CD7"/>
</svg>
