<svg width="5" height="22" viewBox="0 0 5 22" fill="none" xmlns="http://www.w3.org/2000/svg">
<path d="M4.23478 19.5994C4.23478 18.4937 3.3345 17.5973 2.22396 17.5973C1.11341 17.5973 0.213135 18.4937 0.213135 19.5994C0.213135 20.7052 1.11341 21.6016 2.22396 21.6016C3.3345 21.6016 4.23478 20.7052 4.23478 19.5994Z" fill="#60737F"/>
<path d="M4.23087 11.2674C4.23087 10.1616 3.3306 9.26526 2.22005 9.26526C1.1095 9.26526 0.209229 10.1616 0.209229 11.2674C0.209229 12.3731 1.1095 13.2695 2.22005 13.2695C3.3306 13.2695 4.23087 12.3731 4.23087 11.2674Z" fill="#60737F"/>
<path d="M4.23087 2.93341C4.23087 1.82766 3.3306 0.931277 2.22005 0.931276C1.1095 0.931276 0.209229 1.82766 0.209229 2.93341C0.209229 4.03916 1.1095 4.93555 2.22005 4.93555C3.3306 4.93555 4.23087 4.03916 4.23087 2.93341Z" fill="#60737F"/>
</svg>
