<svg width="29" height="29" viewBox="0 0 29 29" fill="none" xmlns="http://www.w3.org/2000/svg">
<rect opacity="0.1" x="0.43457" y="0.175049" width="28" height="28" rx="5" fill="#8B5CF6"/>
<g clip-path="url(#clip0_1_3157)">
<path d="M11.9189 10.7063H9.41895C9.16007 10.7063 8.9502 10.9162 8.9502 11.175C8.9502 11.4339 9.16007 11.6438 9.41895 11.6438H11.9189C12.1778 11.6438 12.3877 11.4339 12.3877 11.175C12.3877 10.9162 12.1778 10.7063 11.9189 10.7063Z" fill="#8B5CF6"/>
<path d="M11.9189 13.2063H9.41895C9.16007 13.2063 8.9502 13.4162 8.9502 13.675C8.9502 13.9339 9.16007 14.1438 9.41895 14.1438H11.9189C12.1778 14.1438 12.3877 13.9339 12.3877 13.675C12.3877 13.4162 12.1778 13.2063 11.9189 13.2063Z" fill="#8B5CF6"/>
<path d="M11.9189 15.7063H9.41895C9.16007 15.7063 8.9502 15.9162 8.9502 16.175C8.9502 16.4339 9.16007 16.6438 9.41895 16.6438H11.9189C12.1778 16.6438 12.3877 16.4339 12.3877 16.175C12.3877 15.9162 12.1778 15.7063 11.9189 15.7063Z" fill="#8B5CF6"/>
<path d="M18.6377 14.7665V10.4869C18.6377 9.86911 18.3995 9.28627 17.9669 8.84546L16.065 6.87861C16.0641 6.87767 16.0631 6.87671 16.0622 6.87577C15.6243 6.43046 15.015 6.17505 14.3905 6.17505H8.35645C7.58104 6.17505 6.9502 6.80589 6.9502 7.5813V19.7375C6.9502 20.513 7.58104 21.1438 8.35645 21.1438H15.6012C16.2692 21.7823 17.1741 22.175 18.1689 22.175C20.2367 22.175 21.9189 20.5068 21.9189 18.4563C21.9189 16.5632 20.485 14.996 18.6377 14.7665ZM7.8877 19.7375V7.5813C7.8877 7.32283 8.09798 7.11255 8.35645 7.11255H14.3905C14.7647 7.11255 15.1298 7.26539 15.3926 7.53186L17.2942 9.49839C17.2951 9.49933 17.296 9.50027 17.2969 9.50117C17.5569 9.76577 17.7002 10.1158 17.7002 10.487V14.767C15.8701 14.9982 14.4502 16.5645 14.4502 18.4563C14.4502 19.0886 14.609 19.6845 14.8885 20.2063H8.35645C8.09798 20.2063 7.8877 19.996 7.8877 19.7375ZM18.1689 21.2375C16.6354 21.2375 15.3877 19.9899 15.3877 18.4563C15.3877 16.9227 16.6354 15.675 18.1689 15.675C19.7198 15.675 20.9814 16.9227 20.9814 18.4563C20.9814 19.9899 19.7198 21.2375 18.1689 21.2375Z" fill="#8B5CF6"/>
<path d="M19.2504 17.3462C19.0515 17.1805 18.7559 17.2073 18.5902 17.4062L17.799 18.3556L17.6196 17.9967C17.5038 17.7651 17.2222 17.6712 16.9907 17.787C16.7591 17.9028 16.6653 18.1844 16.781 18.4159L17.281 19.4159C17.3518 19.5574 17.4891 19.6537 17.6463 19.6719C17.6644 19.674 17.6824 19.675 17.7004 19.675C17.8385 19.675 17.9708 19.6139 18.0604 19.5064L19.3104 18.0064C19.4761 17.8074 19.4493 17.5119 19.2504 17.3462Z" fill="#8B5CF6"/>
<path d="M14.4189 11.6438H14.9189C15.1778 11.6438 15.3877 11.4339 15.3877 11.175C15.3877 10.9162 15.1778 10.7063 14.9189 10.7063H14.4189C14.1601 10.7063 13.9502 10.9162 13.9502 11.175C13.9502 11.4339 14.1601 11.6438 14.4189 11.6438Z" fill="#8B5CF6"/>
<path d="M15.3877 13.675C15.3877 13.4162 15.1778 13.2063 14.9189 13.2063H14.4189C14.1601 13.2063 13.9502 13.4162 13.9502 13.675C13.9502 13.9339 14.1601 14.1438 14.4189 14.1438H14.9189C15.1778 14.1438 15.3877 13.9339 15.3877 13.675Z" fill="#8B5CF6"/>
</g>
<defs>
<clipPath id="clip0_1_3157">
<rect width="16" height="16" fill="white" transform="translate(6.43457 6.17505)"/>
</clipPath>
</defs>
</svg>
