<svg width="13" height="17" viewBox="0 0 13 17" fill="none" xmlns="http://www.w3.org/2000/svg">
<path d="M12.1632 11.5178C11.2088 10.5634 10.6726 9.269 10.6726 7.91927V6.65681C10.6726 4.6486 9.29132 2.96322 7.42703 2.49837V1.2153C7.42703 0.640812 6.96127 0.175049 6.38675 0.175049C5.81222 0.175049 5.34649 0.640812 5.34649 1.2153V2.49834C3.48221 2.96322 2.10091 4.64856 2.10091 6.65677V7.91923C2.10091 9.26896 1.56472 10.5634 0.610327 11.5178C0.190822 11.9373 0.0653268 12.5682 0.29236 13.1163C0.519394 13.6644 1.05425 14.0218 1.64751 14.0218H4.23352C4.23352 15.211 5.19757 16.175 6.38675 16.175C7.57592 16.175 8.53997 15.211 8.53997 14.0218H11.126C11.7192 14.0218 12.2541 13.6645 12.4811 13.1163C12.7082 12.5682 12.5827 11.9373 12.1632 11.5178ZM6.38675 15.1181C5.78224 15.1181 5.29048 14.6263 5.29048 14.0219H7.48302C7.48302 14.6263 6.99125 15.1181 6.38675 15.1181ZM11.5047 12.7119C11.441 12.8656 11.2923 12.9649 11.126 12.9649H1.64751C1.48115 12.9649 1.33251 12.8656 1.26884 12.7119C1.20518 12.5582 1.24006 12.3828 1.3577 12.2652C2.51855 11.1044 3.15783 9.56093 3.15783 7.91927V6.65681C3.15783 4.87637 4.60631 3.42789 6.38675 3.42789C8.16718 3.42789 9.61567 4.87637 9.61567 6.65681V7.91927C9.61567 9.56093 10.255 11.1044 11.4158 12.2652C11.5335 12.3828 11.5683 12.5582 11.5047 12.7119Z" fill="#377BFF"/>
</svg>
