<svg width="17" height="17" viewBox="0 0 17 17" fill="none" xmlns="http://www.w3.org/2000/svg">
<g clip-path="url(#clip0_1_3197)">
<path d="M16.3762 0.813834C16.3661 0.577928 16.1821 0.386365 15.9467 0.366803L15.9321 0.365584C14.3376 0.234115 12.7563 0.410928 11.232 0.891053C9.67418 1.3818 8.25087 2.16415 7.00165 3.2164C6.78493 3.39896 6.5759 3.58858 6.37362 3.78408C5.87721 3.48546 5.29768 3.34362 4.71312 3.38283C4.02505 3.42899 3.37727 3.72321 2.88918 4.2113L0.524992 6.57552C0.34193 6.75858 0.34193 7.05537 0.524992 7.23843L0.802898 7.51633C1.56562 8.27905 2.56724 8.70571 3.62324 8.73383L3.44637 9.88933C3.42377 10.0368 3.47277 10.1862 3.57827 10.2917L6.12193 12.8353C6.21049 12.9239 6.32999 12.9726 6.45334 12.9726C6.4769 12.9726 6.50065 12.9709 6.52427 12.9672L7.68012 12.7903C7.70834 13.8463 8.13474 14.8482 8.89724 15.6107L9.17518 15.8886C9.26671 15.9802 9.38668 16.0259 9.50662 16.0259C9.62656 16.0259 9.74655 15.9802 9.83805 15.8886L12.2022 13.5244C13.112 12.6146 13.2933 11.2343 12.684 10.134C12.9222 9.90096 13.1522 9.65821 13.3725 9.40477C14.4031 8.21883 15.1878 6.86518 15.7046 5.38146C16.2172 3.90983 16.4431 2.37305 16.3762 0.813834ZM15.4499 1.27368C15.4566 2.31637 15.3207 3.3459 15.045 4.34746L12.2725 1.57493C13.3127 1.32437 14.3771 1.22318 15.4499 1.27368ZM1.51993 6.90636L3.55205 4.87424C4.12321 4.30308 4.98952 4.16368 5.70077 4.48755C5.01321 5.26696 4.42793 6.13111 3.95277 7.0714L3.87877 7.21783C3.85646 7.26199 3.84127 7.30943 3.8338 7.35833L3.76662 7.7973C2.93087 7.80477 2.13196 7.49102 1.51993 6.90636ZM4.40899 9.79662L4.60587 8.51046C4.62152 8.48899 4.63568 8.46643 4.64755 8.44255L7.97396 11.769C7.95177 11.7798 7.93071 11.7925 7.91055 11.8066L6.61702 12.0046L4.40899 9.79662ZM11.5394 12.8616L9.50727 14.8937C8.92277 14.2818 8.6089 13.4826 8.61634 12.647L9.05531 12.5798C9.10421 12.5723 9.15162 12.5571 9.19577 12.5348L9.64015 12.3103C10.4749 11.8885 11.2501 11.3787 11.96 10.7877C12.2465 11.487 12.0957 12.3052 11.5394 12.8616ZM9.21734 11.4736L9.07584 11.5451L4.87021 7.33943C6.21196 4.78471 8.51602 2.81005 11.2453 1.87355L14.7196 5.34774C13.7141 8.01562 11.7697 10.1838 9.21734 11.4736Z" fill="#2CA5CB"/>
<path d="M8.70362 5.2527C7.97509 5.98123 7.97509 7.16667 8.70362 7.89523C9.06787 8.25948 9.54641 8.4416 10.0249 8.4416C10.5033 8.4416 10.9819 8.25948 11.3461 7.8952C12.0747 7.16667 12.0747 5.98123 11.3461 5.2527C10.6176 4.52417 9.43212 4.52417 8.70362 5.2527ZM10.6832 7.23229C10.3202 7.59529 9.72953 7.59529 9.36653 7.23229C9.00353 6.86926 9.00353 6.2786 9.36653 5.91557C9.54806 5.73407 9.78644 5.64332 10.0249 5.64332C10.2633 5.64332 10.5017 5.73407 10.6832 5.91557C11.0462 6.27863 11.0462 6.86929 10.6832 7.23229Z" fill="#2CA5CB"/>
<path d="M4.23524 12.3084C4.05221 12.1254 3.7554 12.1254 3.57234 12.3084L2.06405 13.8167C1.88099 13.9998 1.88099 14.2966 2.06405 14.4796C2.15559 14.5712 2.27555 14.6169 2.39549 14.6169C2.51543 14.6169 2.63543 14.5712 2.72693 14.4796L4.23521 12.9713C4.41834 12.7883 4.41834 12.4915 4.23524 12.3084Z" fill="#2CA5CB"/>
<path d="M2.89152 10.9647C2.70849 10.7816 2.41168 10.7816 2.22862 10.9647L0.720305 12.473C0.537242 12.6561 0.537242 12.9528 0.720305 13.1359C0.811836 13.2274 0.931805 13.2732 1.05174 13.2732C1.17168 13.2732 1.29168 13.2274 1.38318 13.1359L2.89149 11.6276C3.07459 11.4445 3.07459 11.1478 2.89152 10.9647Z" fill="#2CA5CB"/>
<path d="M4.91416 13.6503L3.40585 15.1586C3.22279 15.3416 3.22279 15.6384 3.40585 15.8215C3.49738 15.913 3.61735 15.9588 3.73729 15.9588C3.85723 15.9588 3.97723 15.913 4.06873 15.8215L5.57704 14.3132C5.7601 14.1301 5.7601 13.8333 5.57704 13.6503C5.39401 13.4672 5.09723 13.4672 4.91416 13.6503Z" fill="#2CA5CB"/>
</g>
<defs>
<clipPath id="clip0_1_3197">
<rect width="16" height="16" fill="white" transform="translate(0.387695 0.175049)"/>
</clipPath>
</defs>
</svg>
