<svg width="17" height="17" viewBox="0 0 17 17" fill="none" xmlns="http://www.w3.org/2000/svg">
<g clip-path="url(#clip0_1_3176)">
<path d="M15.1854 6.41555C15.3567 5.92927 15.4502 5.40664 15.4502 4.86255C15.4502 2.27786 13.3474 0.175049 10.7627 0.175049H5.0752C2.49051 0.175049 0.387695 2.27786 0.387695 4.86255C0.387695 6.06502 0.84307 7.16302 1.59013 7.99367C1.41441 8.49211 1.3252 9.0142 1.3252 9.55005C1.3252 12.152 3.42801 14.2688 6.0127 14.2688H8.24513L10.9704 16.0956C11.0491 16.1484 11.1402 16.175 11.2315 16.175C11.3071 16.175 11.383 16.1568 11.4522 16.1199C11.6048 16.0384 11.7002 15.8794 11.7002 15.7063V14.2688H12.1519C12.2244 14.2688 12.293 14.2524 12.3542 14.223C14.6304 13.9017 16.3877 11.9285 16.3877 9.55005C16.3877 8.37833 15.9629 7.27699 15.1854 6.41555ZM1.3252 4.86255C1.3252 2.7948 3.00745 1.11255 5.0752 1.11255H10.7627C12.8305 1.11255 14.5127 2.7948 14.5127 4.86255C14.5127 6.9303 12.8305 8.61255 10.7627 8.61255H8.3877C8.29595 8.61255 8.20623 8.63945 8.12966 8.68995L6.0127 10.0858V9.0813C6.0127 8.82242 5.80282 8.61255 5.54395 8.61255H5.0752C3.00745 8.61255 1.3252 6.9303 1.3252 4.86255ZM11.7002 13.3313H11.2314C10.9726 13.3313 10.7627 13.5412 10.7627 13.8V14.8278L8.64873 13.4107C8.57151 13.3589 8.48066 13.3313 8.3877 13.3313H6.0127C3.94495 13.3313 2.2627 11.635 2.2627 9.55005C2.2627 9.25499 2.29648 8.96527 2.36316 8.68349C2.96113 9.10917 3.66266 9.39836 4.4221 9.50474C4.4831 9.5338 4.55141 9.55008 4.62348 9.55008H5.0752V10.9563C5.0752 11.1288 5.16988 11.2873 5.32173 11.369C5.47345 11.4508 5.65791 11.4426 5.80198 11.3477L8.52832 9.55005H10.7627C12.4355 9.55005 13.9062 8.66905 14.7359 7.34686C15.1999 7.98271 15.4502 8.74567 15.4502 9.55005C15.4502 11.635 13.768 13.3313 11.7002 13.3313Z" fill="#F72585"/>
<path d="M5.0752 3.92505C4.55826 3.92505 4.1377 4.34561 4.1377 4.86255C4.1377 5.37949 4.55826 5.80005 5.0752 5.80005C5.59213 5.80005 6.0127 5.37949 6.0127 4.86255C6.0127 4.34561 5.59213 3.92505 5.0752 3.92505Z" fill="#F72585"/>
<path d="M7.91895 3.92505C7.40201 3.92505 6.98145 4.34561 6.98145 4.86255C6.98145 5.37949 7.40201 5.80005 7.91895 5.80005C8.43588 5.80005 8.85645 5.37949 8.85645 4.86255C8.85645 4.34561 8.43588 3.92505 7.91895 3.92505Z" fill="#F72585"/>
<path d="M10.7627 3.92505C10.2458 3.92505 9.8252 4.34561 9.8252 4.86255C9.8252 5.37949 10.2458 5.80005 10.7627 5.80005C11.2796 5.80005 11.7002 5.37949 11.7002 4.86255C11.7002 4.34561 11.2796 3.92505 10.7627 3.92505Z" fill="#F72585"/>
</g>
<defs>
<clipPath id="clip0_1_3176">
<rect width="16" height="16" fill="white" transform="translate(0.387695 0.175049)"/>
</clipPath>
</defs>
</svg>
