<svg width="17" height="17" viewBox="0 0 17 17" fill="none" xmlns="http://www.w3.org/2000/svg">
<g clip-path="url(#clip0_1_3159)">
<path d="M5.91895 4.7063H3.41895C3.16007 4.7063 2.9502 4.91617 2.9502 5.17505C2.9502 5.43392 3.16007 5.6438 3.41895 5.6438H5.91895C6.17782 5.6438 6.3877 5.43392 6.3877 5.17505C6.3877 4.91617 6.17782 4.7063 5.91895 4.7063Z" fill="#8B5CF6"/>
<path d="M5.91895 7.2063H3.41895C3.16007 7.2063 2.9502 7.41617 2.9502 7.67505C2.9502 7.93392 3.16007 8.1438 3.41895 8.1438H5.91895C6.17782 8.1438 6.3877 7.93392 6.3877 7.67505C6.3877 7.41617 6.17782 7.2063 5.91895 7.2063Z" fill="#8B5CF6"/>
<path d="M5.91895 9.7063H3.41895C3.16007 9.7063 2.9502 9.91617 2.9502 10.175C2.9502 10.4339 3.16007 10.6438 3.41895 10.6438H5.91895C6.17782 10.6438 6.3877 10.4339 6.3877 10.175C6.3877 9.91617 6.17782 9.7063 5.91895 9.7063Z" fill="#8B5CF6"/>
<path d="M12.6377 8.76655V4.48692C12.6377 3.86911 12.3995 3.28627 11.9669 2.84546L10.065 0.878611C10.0641 0.877674 10.0631 0.876705 10.0622 0.875768C9.62432 0.430455 9.01498 0.175049 8.39051 0.175049H2.35645C1.58104 0.175049 0.950195 0.805893 0.950195 1.5813V13.7375C0.950195 14.513 1.58104 15.1438 2.35645 15.1438H9.60123C10.2692 15.7823 11.1741 16.175 12.1689 16.175C14.2367 16.175 15.9189 14.5068 15.9189 12.4563C15.9189 10.5632 14.485 8.99602 12.6377 8.76655ZM1.8877 13.7375V1.5813C1.8877 1.32283 2.09798 1.11255 2.35645 1.11255H8.39051C8.7647 1.11255 9.12982 1.26539 9.39257 1.53186L11.2942 3.49839C11.2951 3.49933 11.296 3.50027 11.2969 3.50117C11.5569 3.76577 11.7002 4.11583 11.7002 4.48696V8.76702C9.87013 8.99821 8.4502 10.5645 8.4502 12.4563C8.4502 13.0886 8.60901 13.6845 8.88854 14.2063H2.35645C2.09798 14.2063 1.8877 13.996 1.8877 13.7375ZM12.1689 15.2375C10.6354 15.2375 9.3877 13.9899 9.3877 12.4563C9.3877 10.9227 10.6354 9.67505 12.1689 9.67505C13.7198 9.67505 14.9814 10.9227 14.9814 12.4563C14.9814 13.9899 13.7198 15.2375 12.1689 15.2375Z" fill="#8B5CF6"/>
<path d="M13.2504 11.3462C13.0515 11.1805 12.7559 11.2073 12.5902 11.4062L11.799 12.3556L11.6196 11.9967C11.5038 11.7651 11.2222 11.6712 10.9907 11.787C10.7591 11.9028 10.6653 12.1844 10.781 12.4159L11.281 13.4159C11.3518 13.5574 11.4891 13.6537 11.6463 13.6719C11.6644 13.674 11.6824 13.675 11.7004 13.675C11.8385 13.675 11.9708 13.6139 12.0604 13.5064L13.3104 12.0064C13.4761 11.8074 13.4493 11.5119 13.2504 11.3462Z" fill="#8B5CF6"/>
<path d="M8.41895 5.6438H8.91895C9.17782 5.6438 9.3877 5.43392 9.3877 5.17505C9.3877 4.91617 9.17782 4.7063 8.91895 4.7063H8.41895C8.16007 4.7063 7.9502 4.91617 7.9502 5.17505C7.9502 5.43392 8.16007 5.6438 8.41895 5.6438Z" fill="#8B5CF6"/>
<path d="M9.3877 7.67505C9.3877 7.41617 9.17782 7.2063 8.91895 7.2063H8.41895C8.16007 7.2063 7.9502 7.41617 7.9502 7.67505C7.9502 7.93392 8.16007 8.1438 8.41895 8.1438H8.91895C9.17782 8.1438 9.3877 7.93392 9.3877 7.67505Z" fill="#8B5CF6"/>
</g>
<defs>
<clipPath id="clip0_1_3159">
<rect width="16" height="16" fill="white" transform="translate(0.43457 0.175049)"/>
</clipPath>
</defs>
</svg>
