<svg width="25" height="25" viewBox="0 0 25 25" fill="none" xmlns="http://www.w3.org/2000/svg">
<g clip-path="url(#clip0_1_3735)">
<path d="M23.5499 19.9408C23.0776 19.3133 22.4394 18.8165 21.7211 18.5089C21.8734 18.2272 21.96 17.9049 21.96 17.5629V15.7828L22.6448 13.5002H19.2594C18.5472 13.5002 17.9678 14.0797 17.9678 14.7918V17.5629C17.9678 17.9045 18.0542 18.2262 18.2061 18.5076C17.3877 18.8562 16.6915 19.4417 16.2063 20.1857C16.1519 20.1027 16.0954 20.0208 16.0352 19.9408C15.5629 19.3133 14.9247 18.8165 14.2064 18.5089C14.3587 18.2272 14.4453 17.9049 14.4453 17.5629V15.7746L15.0139 13.5002H9.88455L10.4531 15.7746V17.5629C10.4531 17.905 10.5397 18.2272 10.692 18.5089C9.9737 18.8165 9.33551 19.3133 8.86326 19.9408C8.80305 20.0208 8.74655 20.1027 8.69216 20.1857C8.2069 19.4417 7.51076 18.8562 6.69237 18.5076C6.84421 18.2262 6.93063 17.9045 6.93063 17.5629V14.7918C6.93063 14.0797 6.35125 13.5002 5.63904 13.5002H2.25368L2.93846 15.7828V17.5629C2.93846 17.905 3.02506 18.2272 3.17733 18.5089C2.45902 18.8165 1.82084 19.3133 1.34858 19.9408C0.760232 20.7225 0.449219 21.6543 0.449219 22.6353V24.9366H1.15372V22.6353C1.15372 21.0265 2.14552 19.6233 3.64169 19.0819C3.99028 19.379 4.44167 19.559 4.93454 19.559C5.42765 19.559 5.87923 19.3788 6.22786 19.0814C7.12568 19.4079 7.86822 20.0658 8.30342 20.9197C8.08004 21.4581 7.9639 22.0374 7.9639 22.6353V24.9366H8.6684V22.6353C8.6684 21.0265 9.66019 19.6233 11.1564 19.0819C11.505 19.379 11.9563 19.559 12.4492 19.559C12.9421 19.559 13.3935 19.379 13.7421 19.0819C15.2382 19.6233 16.23 21.0265 16.23 22.6353V24.9366H16.9345V22.6353C16.9345 22.0374 16.8184 21.4581 16.595 20.9197C17.0302 20.0658 17.7728 19.4079 18.6706 19.0814C19.0193 19.3788 19.4708 19.559 19.9639 19.559C20.4568 19.559 20.9082 19.379 21.2568 19.0819C22.7529 19.6233 23.7447 21.0265 23.7447 22.6353V24.9366H24.4492V22.6353C24.4492 21.6543 24.1382 20.7225 23.5499 19.9408ZM6.22613 17.5629C6.22613 18.275 5.64675 18.8545 4.93454 18.8545C4.22234 18.8545 3.64296 18.275 3.64296 17.5629V16.0834H6.22613V17.5629ZM6.22613 15.3789H3.55278L3.20053 14.2047H5.63904C5.96278 14.2047 6.22613 14.4681 6.22613 14.7918V15.3789ZM13.7408 17.5629C13.7408 18.275 13.1614 18.8545 12.4492 18.8545C11.737 18.8545 11.1576 18.275 11.1576 17.5629V16.0834H13.7408V17.5629ZM13.818 15.3789H11.0804L10.7869 14.2047H14.1116L13.818 15.3789ZM21.2555 17.5629C21.2555 18.275 20.6761 18.8545 19.9639 18.8545C19.2517 18.8545 18.6723 18.275 18.6723 17.5629V16.0834H21.2555V17.5629ZM21.3457 15.3789H18.6723V14.7918C18.6723 14.4681 18.9357 14.2047 19.2594 14.2047H21.6979L21.3457 15.3789Z" fill="#666D80"/>
<path d="M21.7252 22.2126H22.4297V24.9367H21.7252V22.2126Z" fill="#666D80"/>
<path d="M17.5921 22.2126H18.2966V24.9367H17.5921V22.2126Z" fill="#666D80"/>
<path d="M2.46881 22.2126H3.17331V24.9367H2.46881V22.2126Z" fill="#666D80"/>
<path d="M6.60187 22.2126H7.30637V24.9367H6.60187V22.2126Z" fill="#666D80"/>
<path d="M9.98346 22.2126H10.688V24.9367H9.98346V22.2126Z" fill="#666D80"/>
<path d="M14.2104 22.2126H14.915V24.9367H14.2104V22.2126Z" fill="#666D80"/>
<path d="M4.91935 12.5707L8.29748 11.0581H10.4532L12.4492 12.5551L14.4453 11.0581H16.601L19.9791 12.5707L20.7858 11.0581H22.8993V0.960205H1.99915V11.0581H4.11265L4.91935 12.5707ZM2.70365 1.66471H22.1948V10.3536H20.3631L19.6669 11.6589L16.7515 10.3536H14.2105L12.4492 11.6745L10.688 10.3536H8.14695L5.23154 11.6589L4.53535 10.3536H2.70365V1.66471Z" fill="#666D80"/>
<path d="M10.9228 7.76477V9.88391H13.9756V7.76477C14.8501 7.23339 15.3846 6.29166 15.3846 5.25769C15.3846 3.63907 14.0678 2.32227 12.4492 2.32227C10.8306 2.32227 9.51379 3.63907 9.51379 5.25769C9.51379 6.29166 10.0484 7.23334 10.9228 7.76477ZM13.2711 9.17941H11.6273V7.95827H13.2711V9.17941ZM12.4492 3.02677C13.6793 3.02677 14.6801 4.02758 14.6801 5.25769C14.6801 6.09942 14.2138 6.8608 13.463 7.24471L13.4452 7.25377H12.8015V5.89174H13.6234V5.18724H11.275V5.89174H12.097V7.25377H11.4532L11.4354 7.24471C10.6847 6.8608 10.2183 6.09942 10.2183 5.25769C10.2183 4.02758 11.2191 3.02677 12.4492 3.02677Z" fill="#666D80"/>
<path d="M6.81323 4.90552H8.50403V5.61002H6.81323V4.90552Z" fill="#666D80"/>
<path d="M7.50201 7.63843L8.62904 6.5114L9.12712 7.00948L8.0001 8.13651L7.50201 7.63843Z" fill="#666D80"/>
<path d="M7.5025 2.8772L8.00058 2.37912L9.12761 3.50614L8.62953 4.00422L7.5025 2.8772Z" fill="#666D80"/>
<path d="M16.3944 4.90552H18.0852V5.61002H16.3944V4.90552Z" fill="#666D80"/>
<path d="M15.7673 7.01074L16.2654 6.51266L17.3924 7.63969L16.8944 8.13777L15.7673 7.01074Z" fill="#666D80"/>
<path d="M15.7673 3.50659L16.8944 2.37956L17.3924 2.87765L16.2654 4.00467L15.7673 3.50659Z" fill="#666D80"/>
</g>
<defs>
<clipPath id="clip0_1_3735">
<rect width="24" height="24" fill="white" transform="translate(0.449219 0.948486)"/>
</clipPath>
</defs>
</svg>
