<svg width="25" height="25" viewBox="0 0 25 25" fill="none" xmlns="http://www.w3.org/2000/svg">
<path d="M4.31219 7.21133L4.9145 7.57678C5.59152 6.4608 6.52611 5.49169 7.61729 4.77418L7.23024 4.18555C6.05217 4.96026 5.04314 6.00654 4.31219 7.21133Z" fill="#377BFF"/>
<path d="M4.9145 16.6985L4.31219 17.0639C5.02661 18.2415 6.0091 19.2702 7.1534 20.0386L7.54614 19.4537C6.48624 18.742 5.57621 17.7892 4.9145 16.6985Z" fill="#377BFF"/>
<path d="M17.4189 19.4088L17.817 19.99C19.3103 18.9674 20.4765 17.5508 21.1896 15.8934L20.5425 15.615C19.8821 17.1497 18.802 18.4616 17.4189 19.4088Z" fill="#377BFF"/>
<path d="M19.9912 7.5888L20.5941 7.22434C19.8625 6.01396 18.8507 4.96313 17.6682 4.18555L17.2811 4.77418C18.3764 5.49451 19.3135 6.46775 19.9912 7.5888Z" fill="#377BFF"/>
<path d="M14.1849 17.4895C14.3503 17.1988 14.4453 16.8632 14.4453 16.5056V15.2809L15.0139 13.0066H11.7447C11.0325 13.0066 10.4531 13.586 10.4531 14.2982V16.5056C10.4531 16.8632 10.5481 17.1988 10.7135 17.4895C9.99222 17.7939 9.35089 18.2883 8.87488 18.9151C8.27892 19.7 7.96387 20.637 7.96387 21.625V24.1377H16.9345V21.625C16.9345 20.637 16.6195 19.7 16.0235 18.9151C15.5475 18.2882 14.9062 17.7938 14.1849 17.4895ZM11.1576 14.2982C11.1576 13.9744 11.4209 13.7111 11.7447 13.7111H14.1115L13.818 14.8853H11.1576V14.2982ZM11.1576 15.5898H13.7408V16.5056C13.7408 17.2178 13.1614 17.7972 12.4492 17.7972C11.737 17.7972 11.1576 17.2178 11.1576 16.5056V15.5898ZM16.23 23.4332H15.1498V20.7796H14.4453V23.4332H12.8014V20.6387H12.0969V23.4332H10.4531V20.7796H9.7486V23.4332H8.66837V21.625C8.66837 20.0241 9.69858 18.5845 11.196 18.0577C11.5388 18.3351 11.9748 18.5017 12.4492 18.5017C12.9236 18.5017 13.3595 18.3351 13.7024 18.0577C15.1998 18.5845 16.23 20.0241 16.23 21.625V23.4332Z" fill="#377BFF"/>
<path d="M12.097 19.2297H12.8015V19.9342H12.097V19.2297Z" fill="#377BFF"/>
<path d="M9.43454 5.749L9.01709 6.62709L10.0693 7.67928L10.9474 7.26194L11.3793 7.44083L11.7051 8.35687H13.1932L13.519 7.44083L13.9509 7.26189L14.829 7.67928L15.8812 6.62709L15.4638 5.74905L15.6427 5.31709L16.5588 4.99133V3.50324L15.6427 3.17748L15.4638 2.74552L15.8812 1.86748L14.829 0.815284L13.9509 1.23268L13.519 1.05373L13.1932 0.137695H11.7051L11.3794 1.05373L10.9475 1.23268L10.0694 0.815284L9.01714 1.86748L9.43458 2.74557L9.25569 3.17748L8.3396 3.50324V4.99133L9.25564 5.31709L9.43454 5.749ZM9.0441 4.00043L9.78669 3.73633L10.2053 2.72584L9.86686 2.01406L10.216 1.66496L10.9278 2.00326L11.9383 1.58474L12.2023 0.842196H12.696L12.9601 1.58479L13.9706 2.00331L14.6825 1.66501L15.0316 2.01411L14.6932 2.72594L15.1117 3.73638L15.8543 4.00043V4.49414L15.1116 4.75824L14.6931 5.76868L15.0315 6.48051L14.6824 6.82961L13.9706 6.49131L12.9601 6.90983L12.696 7.65237H12.2023L11.9382 6.90978L10.9277 6.49121L10.2159 6.82956L9.86682 6.48046L10.2052 5.76868L9.78664 4.75819L9.0441 4.49414V4.00043Z" fill="#377BFF"/>
<path d="M12.4492 5.77378C13.2909 5.77378 13.9756 5.08906 13.9756 4.24737C13.9756 3.40568 13.2909 2.72095 12.4492 2.72095C11.6076 2.72095 10.9228 3.40568 10.9228 4.24737C10.9228 5.08906 11.6076 5.77378 12.4492 5.77378ZM12.4492 3.42545C12.9024 3.42545 13.2711 3.79418 13.2711 4.24737C13.2711 4.70055 12.9024 5.06928 12.4492 5.06928C11.996 5.06928 11.6273 4.70055 11.6273 4.24737C11.6273 3.79418 11.996 3.42545 12.4492 3.42545Z" fill="#377BFF"/>
<path d="M6.32006 8.26294H0.449219V16.0125H6.32006V8.26294ZM5.61556 15.3079H1.15372V8.96744H5.61556V15.3079Z" fill="#377BFF"/>
<path d="M1.97565 9.67188H4.79365V10.3764H1.97565V9.67188Z" fill="#377BFF"/>
<path d="M1.97565 11.0811H4.79365V11.7856H1.97565V11.0811Z" fill="#377BFF"/>
<path d="M1.97565 12.49H4.79365V13.1945H1.97565V12.49Z" fill="#377BFF"/>
<path d="M1.97565 13.8989H3.66645V14.6034H1.97565V13.8989Z" fill="#377BFF"/>
<path d="M23.1576 8.26294H19.5882C18.876 8.26294 18.2966 8.84237 18.2966 9.55452V9.67194H18.1792C17.467 9.67194 16.8876 10.2514 16.8876 10.9635V13.4058C16.8876 14.0623 17.3799 14.606 18.0148 14.687V16.2612L20.8073 14.6974H21.7486C22.0447 14.6974 22.3242 14.5983 22.5493 14.4195L23.322 14.8522V13.278C23.9569 13.1969 24.4492 12.6532 24.4492 11.9968V9.55452C24.4492 8.84237 23.8698 8.26294 23.1576 8.26294ZM21.7486 13.9929H20.6234L18.7193 15.0592V13.9929H18.1792C17.8554 13.9929 17.5921 13.7295 17.5921 13.4058V10.9635C17.5921 10.6398 17.8554 10.3764 18.1792 10.3764H18.2966V11.9968C18.2966 12.709 18.876 13.2884 19.5882 13.2884H20.5295L21.784 13.9909C21.7722 13.9916 21.7606 13.9929 21.7486 13.9929ZM23.7447 11.9968C23.7447 12.3205 23.4814 12.5839 23.1576 12.5839H22.6175V13.6502L20.7133 12.5839H19.5882C19.2644 12.5839 19.0011 12.3205 19.0011 11.9968V9.55452C19.0011 9.23078 19.2644 8.96744 19.5882 8.96744H23.1576C23.4814 8.96744 23.7447 9.23078 23.7447 9.55452V11.9968Z" fill="#377BFF"/>
</svg>
