<svg width="21" height="21" viewBox="0 0 21 21" fill="none" xmlns="http://www.w3.org/2000/svg">
<g clip-path="url(#clip0_1_1831)">
<path d="M19.931 18.8397L13.7324 12.6411C14.7448 11.3529 15.3494 9.7296 15.3494 7.96772C15.3494 3.79021 11.9508 0.391602 7.77333 0.391602C3.59587 0.391602 0.197266 3.79021 0.197266 7.96766C0.197266 12.1451 3.59587 15.5437 7.77333 15.5437C9.53514 15.5437 11.1585 14.9392 12.4467 13.9267L18.6454 20.1253C18.8228 20.3029 19.0555 20.3916 19.2882 20.3916C19.5208 20.3916 19.7535 20.3029 19.931 20.1253C20.286 19.7703 20.286 19.1947 19.931 18.8397ZM2.01545 7.96766C2.01545 4.79275 4.59842 2.20978 7.77333 2.20978C10.9482 2.20978 13.5313 4.79275 13.5313 7.96766C13.5313 11.1426 10.9482 13.7255 7.77333 13.7255C4.59842 13.7255 2.01545 11.1426 2.01545 7.96766Z" fill="#007CD7"/>
</g>
<defs>
<clipPath id="clip0_1_1831">
<rect width="20" height="20" fill="white" transform="translate(0.197266 0.391602)"/>
</clipPath>
</defs>
</svg>
